<?xml version="1.0" encoding="UTF-8"?>
<svg viewBox="0 0 643.36603 624.2843" xmlns="http://www.w3.org/2000/svg">
 <g transform="translate(-50.831 -52.224)">
  <path d="m527.01 673.11c-32.425-11.528-50.717-27.129-63.618-54.26-9.9574-20.939-15.358-27.348-24.284-28.816-3.585-0.58975-8.725-1.9098-11.422-2.9333-7.4703-2.8348-24.773-22.058-29.864-33.179-3.8794-8.4736-4.2847-11.011-2.8089-17.579 1.8432-8.2033 9.3638-17.497 15.562-19.231 2.0798-0.5818 6.2429-2.1604 9.2515-3.508s9.0685-3.5106 13.467-4.8067l7.9969-2.3566-6.1735-5.176c-3.3955-2.8468-16.547-12.563-29.226-21.593s-27.711-21.301-33.405-27.27-10.82-10.854-11.39-10.854c-2.2125 0-5.8846 6.5894-5.9397 10.659-0.0824 6.0797-5.7263 14.868-9.5483 14.868-1.7787 0-7.5504-1.6406-12.826-3.6458s-10.126-3.6462-10.779-3.6467c-2.0603-0.00158-8.6012 12.394-10.749 20.369-2.8631 10.632-12.523 25.118-22.017 33.015-4.391 3.6524-13.317 11.027-19.835 16.388-8.8743 7.2987-13.403 12.779-18.025 21.815-3.3954 6.6372-5.7103 13.275-5.1442 14.75s5.1902 4.0643 10.276 5.7535 9.2467 3.6231 9.2467 4.2976 5.7827 7.6558 12.85 15.514c13.455 14.96 15.074 19.704 8.417 24.66-2.1145 1.5744-5.6996 2.1106-9.7336 1.456-5.496-0.8919-6.2115-0.60394-5.1336 2.066 0.6887 1.7063 1.6041 5.9741 2.0339 9.484 1.1042 9.0181-3.7637 13.826-18.656 18.426-6.7944 2.0986-16.571 6.1958-21.726 9.1049-11.123 6.2777-16.393 6.7935-16.781 1.6427-0.1741-2.3101 0.8532-3.6518 2.8028-3.6607 1.6926-0.00775 11.229-4.1102 21.192-9.1167s19.094-9.1026 20.291-9.1026c2.9545 0 7.219-10.771 6.4953-16.405-0.3224-2.51-1.7367-5.2198-3.1428-6.0218-3.8361-2.1878-3.0761-4.718 1.0901-3.6285 8.5575 2.2379-0.0991-14.195-17.938-34.052-6.4123-7.1375-8.5311-10.759-7.4673-12.763 0.8169-1.5391 2.9401-6.9009 4.7184-11.915 3.3928-9.5668 15.677-23.146 38.374-42.42 9.9145-8.4193 12.664-12.322 22.359-31.733 6.0798-12.173 10.839-22.258 10.575-22.41-4.7272-2.7293-26.271-20.991-31.199-26.446l-6.6055-7.3115-3.0248 4.9902c-1.6637 2.7446-5.6889 9.0928-8.945 14.107-28.593 44.031-41.227 69.171-47.37 94.259-2.53 10.333-6.346 25.209-8.4798 33.057-3.641 13.391-3.7551 15.861-1.8535 40.113 1.1144 14.214 2.5569 29.845 3.2054 34.737 0.8365 6.3092 0.5906 8.5296-0.8462 7.6416-1.1433-0.7066-2.0255-0.05321-2.0255 1.5002 0 1.5136 1.4291 3.5517 3.1757 4.5292s2.5443 2.4085 1.7727 3.1801c-2.7503 2.7502-9.1227-6.4435-11.1-16.014-2.6085-12.626-1.6677-59.023 1.4252-70.279 21.469-78.131 21.917-79.152 65.148-148.39 5.0809-8.1374 5.1444-8.5376 2.2698-14.3-3.3261-6.6675-1.7448-11.619 6.076-19.026 14.839-14.054-13.317 4.9884-34.124 23.079-15.432 13.417-24.778 15.179-34.093 6.428-2.3006-2.1613-4.4245-3.5846-4.7197-3.1628-7.2159 10.31-11.862 15.19-16.622 17.46-3.213 1.5322-7.325 4.9671-9.1377 7.6332-7.7291 11.368-28.483 20.346-47.032 20.346-12.432 0-17.973-2.4634-27.342-12.157-10.796-11.171-24.154-36.818-22.817-43.811 0.43255-2.2627-0.28369-4.4232-1.6387-4.9432-2.7428-1.0525-7.81-12.255-8.6896-19.211-0.32427-2.5645-1.9652-9.2635-3.6466-14.887-4.0571-13.569-2.1311-18.959 7.723-21.612 7.4373-2.0027 9.3842-4.5149 9.3842-12.109 0-5.087-7.5934-24.628-12.278-31.596-3.2441-4.8256-7.7332-16.045-7.7109-19.272 0.00693-1.0028 1.5955 1.6638 3.5301 5.9258 3.9713 8.7489 5.368 9.3064 10.131 4.0436 1.8444-2.038 6.0741-5.387 9.3992-7.442s6.0458-4.9881 6.0458-6.5179c0-1.7232 1.0405-2.3821 2.735-1.7318 1.5042 0.57723 2.735 0.38647 2.735-0.42393s2.2138-2.4821 4.9194-3.7149c9.9804-4.5474 27.901-17.434 27.901-20.064 0-2.0206 0.52708-2.1859 2.0654-0.64752 4.4864 4.4864-1.6657 10.026-24.028 21.635-5.47 2.8397-11.997 7.0005-14.504 9.2462s-8.0079 7.0537-12.224 10.685l-7.6657 6.6014 4.7262 10.347c10.813 23.674 11.044 32.997 0.92181 37.147-4.8429 1.9854-4.8028 2.029 3.2525 3.5337 8.1691 1.526 24.218-0.20403 32.869-3.5433 3.2256-1.245-0.10605-1.4785-11.396-0.79862-10.084 0.60726-15.954 0.28837-15.954-0.86663 0-1.0051 7.5896-2.4126 16.866-3.1277s19.086-1.5162 21.798-1.78 8.3498-2.7411 12.526-5.505c4.8691-3.2222 9.1663-4.7247 11.977-4.1874 2.4106 0.46083 4.8908 0.01611 5.5116-0.98828s1.2991-17.509 1.5074-36.678 1.0311-38.003 1.8282-41.855l1.4494-7.0027-9.5293 4.8289c-14.368 7.281-17.87 4.7842-3.8436-2.7408 11.372-6.1008 11.857-6.6524 14.24-16.192 1.3569-5.4317 3.6488-11.563 5.093-13.625 4.5858-6.5472 2.9074-6.7789-8.2621-1.1405-11.002 5.5539-18.285 7.0168-18.285 3.6729 0-1.0028 1.3159-1.8233 2.9242-1.8233s8.5093-2.9349 15.336-6.522l12.411-6.522 1.2056-11.256c0.66308-6.1905 1.6545-12.825 2.203-14.743 0.86332-3.0184-0.37648-2.712-9.2202 2.2792-9.8512 5.5597-15.877 7.2568-15.62 4.399 0.06773-0.75211 6.6317-4.6062 14.587-8.5646l14.464-7.1972v-12.404c0-6.822-0.65986-12.404-1.4664-12.404s-5.3477 2.4615-10.092 5.47-9.4173 5.47-10.385 5.47c-4.162 0-0.97929-3.1608 9.18-9.1167 11.613-6.8084 13.164-10.324 9.1758-20.813l-1.7642-4.6401-14.904 7.2074c-8.1972 3.9641-16.224 8.3117-17.837 9.6615-2.2519 1.8844-21.673 13.532-31.524 18.906-0.68284 0.37251-1.7248-0.1047-2.3155-1.0605s5.969-5.5769 14.577-10.269 16.617-10.077 17.797-11.967 3.5304-3.4356 5.2229-3.4356c2.9578 0 25.219-12.348 25.219-13.989 0-2.7324-21.772-10.236-29.896-10.304-25.44-0.21164-59.626 33.447-73.281 72.151l-2.5025 7.0928 4.9775-3.7901c9.4971-7.2314 27.948-20.164 28.768-20.164 0.45336 0 0.81869 1.0256 0.81185 2.2792s-3.0567 4.3304-6.7774 6.8375c-13.061 8.8006-28.076 22.228-29.735 26.59-3.161 8.3141-5.0992 4.468-2.6035-5.1664 6.8905-26.6 10.608-34.967 23.819-53.613 18.177-25.655 40.216-38.825 67.274-40.201 13.662-0.69489 15.194-0.38615 24.171 4.8712 5.2714 3.0872 11.393 8.3715 13.603 11.743s6.776 7.615 10.147 9.4303c7.6132 4.0999 11.81 9.894 17.18 23.718 3.5925 9.2479 4.1735 14.008 4.0974 33.568-0.0776 19.969-0.7235 24.703-5.2157 38.221-2.82 8.4864-7.498 20.324-10.396 26.306-6.258 12.919-6.3811 15.421-1.604 32.604 2.0153 7.2494 4.5197 16.71 5.5651 21.023 1.6997 7.0116 2.3252 7.6914 5.9082 6.4216 2.204-0.78115 12.622-1.1941 23.152-0.91772 12.409 0.32572 22.353-0.40216 28.262-2.0687 5.0141-1.4142 12.986-3.667 17.715-5.0064 7.9751-2.2587 9.3626-2.12 19.145 1.9142 5.8008 2.3922 14.578 6.7152 19.506 9.6067l8.9592 5.2573 20.797-20.641c11.438-11.353 22.37-22.803 24.291-25.445l3.4941-4.8041-18.423-12.343c-14.825-9.9327-19.086-13.802-21.814-19.811-4.1221-9.0765-4.4112-21.667-0.7365-32.082 5.0585-14.337 3.7089-23.443-6.6138-44.626-11.44-23.476-11.452-28.947-0.1186-52.091 6.2981-12.861 9.0784-16.476 16.767-21.799 5.0692-3.5099 13.5-9.4881 18.736-13.285 8.9517-6.4914 20.063-10.61 42.623-15.798 10.609-2.4398 25.664-0.5 35.468 4.57 3.926 2.0303 6.1428 2.3534 6.9695 1.0159 0.7595-1.2288 3.3806 0.01917 7.0177 3.3412 3.193 2.9164 7.2565 5.8025 9.03 6.4136 3.6495 1.2576 12.124 17.527 16.052 30.813 1.4411 4.8761 3.1501 15.221 3.798 22.988l1.1777 14.122 5.2452-2.6167c11.453-5.7136 25.27 4.0534 25.27 17.863 0 3.9344 0.35 7.1534 0.7778 7.1534 2.1341 0 31.53-18.893 34.12-21.929 1.6441-1.9274 6.6966-4.4958 11.228-5.7077 7.8073-2.0881 8.8779-1.8884 20.469 3.8177l12.231 6.0211 7.6386-3.8149c10.35-5.169 31.391-9.3844 46.842-9.3844 10.906 0 13.336 0.60944 16.986 4.2591 6.7354 6.7354 13.153 33.822 14.056 59.322 0.1857 5.2463 1.4108 10.282 2.7775 11.416 2.9566 2.4537 3.277 12.523 0.3986 12.523-1.3401 0-1.1936 1.0278 0.4242 2.9771 1.7315 2.0863 2.6783 10.533 3.1643 28.228 0.7512 27.355-0.1351 34.434-4.3116 34.434-1.4852 0-2.7003 0.8205-2.7003 1.8233 0 2.4916-6.0811 2.3062-8.651-0.26373-1.5673-1.5672-2.3686-0.96548-3.2172 2.4157-1.3101 5.2194 7.2181 37.432 11.033 41.675 7.67 8.5303 10.42 27.549 5.6015 38.738-5.7973 13.462-27.122 28.276-46.765 32.489-12.53 2.6873-31.873 1.2727-40.851-2.9876-20.291-9.6286-31.363-33.533-22.771-49.161 3.38-6.1476 4.1457-11.034 4.8745-31.107 0.8377-23.074-1.5453-44.562-4.9419-44.562-3.9519 0-3.4251-6.2546 0.8903-10.57 2.5619-2.5619 4.2153-5.8115 3.6742-7.2214s-0.9836-3.8638-0.9836-5.4531c0-1.8274-2.3457-0.26445-6.381 4.2516-8.4317 9.4364-31.831 55.982-37.504 74.605-2.6957 8.8479-18.807 42.184-22.369 46.284-5.0518 5.8154-19.002 26.8-22.868 34.398-2.1683 4.262-4.6488 7.7492-5.5122 7.7492s-3.7064 2.8012-6.3178 6.2249c-4.289 5.6231-4.5128 6.678-2.316 10.912 1.3375 2.5781 3.0098 4.1096 3.7162 3.4032s0.8167-0.06573 0.2452 1.4237c-1.0826 2.8211 2.8083 9.5427 22.848 39.47 13.999 20.906 25.733 43.447 29.05 55.804 3.5768 13.324 0.3232 22.362-9.6861 26.906-4.1986 1.9062-9.0212 3.4838-10.717 3.5059-4.9549 0.06434-5.2309 2.6664-0.9347 8.8142 2.6425 3.7814 5.5783 5.7751 8.5761 5.8243 6.7635 0.11098 24.266 7.7998 32.375 14.223 3.9102 3.097 9.2655 8.7508 11.901 12.564 4.9248 7.1265 12.182 27.619 12.224 34.516 0.0618 10.181-14.29 30.435-25.774 36.373-6.6731 3.4508-16.771 3.0763-28.384-1.0526zm23.04-2.8887c3.972-1.5893 8.5014-4.8424 10.065-7.2292 3.8271-5.841 3.5823-6.815-1.085-4.3171-8.8216 4.7212-20.186 2.8123-39.079-6.5644-25.178-12.496-34.841-22.181-48.144-48.257-5.3989-10.583-14.666-20.288-30.763-32.216-26.69-19.778-34.285-29.791-32.528-42.885 0.5963-4.4452 0.2682-6.5659-0.9037-5.8416-2.971 1.8361-8.6699 15.749-8.7133 21.272-0.0628 7.9751 6.8339 19.497 18.507 30.919 9.274 9.0746 11.66 10.489 17.696 10.489 12.011 0 17.986 5.8294 30.598 29.85 12.532 23.868 14.07 25.94 26.768 36.054 9.4923 7.5607 11.442 8.2922 12.66 4.7497 0.431-1.2536 0.5534-0.78746 0.272 1.0357-0.5252 3.4023 7.6216 7.9178 23.827 13.206 9.7193 3.1718 12.315 3.1387 20.823-0.26557zm5.071-18.917c5.1439-3.1364 11.484-11.908 11.484-15.887 0-0.77447-3.5259 2.5988-7.8352 7.496-7.5662 8.5984-8.186 8.9098-18.044 9.0667-5.6151 0.08942-9.8355 0.77795-9.3788 1.5301 1.722 2.8357 17.98 1.3276 23.774-2.2054zm-65.044-45.657c0.9742 0 1.8159 2.2564 1.8706 5.0142 0.0829 4.1793 0.6999 3.4962 3.7056-4.1025 4.036-10.203 14.259-20.968 19.914-20.968 3.5303 0 3.5686 0.22408 0.7697 4.4958-2.7602 4.2127-2.7077 4.83 0.8337 9.8035 7.0253 9.8661 22.906 14.296 30.397 8.4787 3.4096-2.648 3.224-3.0412-5.0717-10.735-4.736-4.3926-12.422-10.511-17.081-13.597-7.8845-5.2224-8.8148-5.4321-13.454-3.033-5.973 3.0888-15.662 13.771-17.37 19.15-0.9496 2.9918-1.7792 3.4033-3.6804 1.8254-3.1269-2.5951-6.4294 2.9451-6.1911 10.386l0.1645 5.134 1.711-5.9258c0.9411-3.2592 2.508-5.9258 3.4822-5.9258zm-3.6988-11.004c0-2.984-2.6506-1.9495-5.1147 1.9962-2.1662 3.4684-2.0603 3.6028 1.3846 1.7592 2.0516-1.0979 3.7301-2.7879 3.7301-3.7554zm14.686-25.564c3.9865-4.067 10.332-8.7849 14.102-10.484 6.1774-2.7846 6.9084-3.8524 7.4042-10.817 0.8187-11.501-8.842-29.716-31.682-59.736-10.682-14.04-20.271-27.846-21.31-30.681-1.5491-4.2289-2.666-4.9595-6.2191-4.0678-4.4408 1.1146-6.1514-1.5907-2.0518-3.2449 1.2535-0.50581-2.4871-0.98443-8.3127-1.0636-7.0173-0.09538-10.186-0.80123-9.388-2.0916 0.6621-1.0712 2.3993-1.4889 3.8605-0.92811s7.5737-0.63679 13.583-2.6612c12.212-4.1142 16.366-3.3181 11.388 2.1826-2.4486 2.7056-2.6891 3.9156-0.9877 4.9671 1.2371 0.76461 2.6129 3.2782 3.0573 5.5857 1.0214 5.3042 3.8712 9.6235 19.891 30.148 7.1209 9.1233 14.43 18.606 16.243 21.073 5.3657 7.3013-3.6998-8.4548-15.541-27.011-12.557-19.677-17.557-30.27-18.186-38.529-0.2482-3.2564-1.0754-6.3066-1.8384-6.7781-1.558-0.96291-9.0978 2.635-10.727 5.1188-0.5825 0.88824-4.2747 2.0156-8.2049 2.5053-6.3304 0.78871-6.6777 0.64551-3.0433-1.2549 2.2563-1.1799 4.1024-2.6706 4.1024-3.3129s-6.769-1.1322-15.042-1.0889c-14.398 0.07541-26.94-2.558-31.938-6.7058-3.9918-3.3129-3.9733-0.84942 0.0806 10.722 3.3646 9.6045 3.5593 11.593 1.3903 14.207-1.9498 2.3494-4.2092 2.7679-9.9587 1.8445-10.022-1.6096-14.194-4.5528-23.017-16.239-4.7763-6.3262-8.4239-9.5514-10.082-8.915-1.4293 0.54846-2.5987 1.7482-2.5987 2.6662 0 4.1257 17.707 20.254 42.848 39.029 15.042 11.233 34.735 27.163 43.76 35.399 24.812 22.641 35.273 29.588 45.147 29.981 7.8389 0.3118 14.111 3.3352 14.111 6.802 0 0.88006-1.641 1.6001-3.6467 1.6001s-3.6467-0.6888-3.6467-1.5306c0-1.7347-9.1835-6.3037-10.342-5.1453-0.4146 0.41465 2.1529 2.4689 5.7057 4.5651s6.4595 4.6594 6.4595 5.696c0 2.4858-6.7384 2.4347-8.2819-0.0628-0.662-1.0712-2.4231-1.4797-3.9136-0.90775-1.7376 0.6668-7.1205-3.3772-15.003-11.272-19.431-19.459-33.091-29.441-37.866-27.67-5.3605 1.9884-7.8684 7.1933-7.8684 16.33 0 10.446 4.4168 18.83 16.315 30.97 10.998 11.222 24.751 17.935 37.09 18.105 5.7326 0.07882 8.1445-1.1647 14.158-7.2996zm-10.985-25.324c-1.0435-1.9498-2.8402-4.1278-3.9925-4.84-1.404-0.86773-1.6079-0.45007-0.618 1.2659 3.9106 6.7792 8.0382 9.9789 4.6105 3.5741zm-68.076-15.6c3.4955-2.2477 5.9682-5.5703 6.4455-8.6608 1.0747-6.9588-2.9307-6.5122-10.628 1.1852-6.1426 6.1426-7.395 10.448-4.9158 16.899 1.1202 2.9148 1.42 2.7597 2.3554-1.2184 0.5895-2.5071 3.6239-6.1993 6.7429-8.205zm-78.632-77.171c-6.4837-3.5656-7.7306-4.9633-5.8265-6.5312 4.9611-4.0852 12.355-15.579 11.212-17.428-0.7654-1.2384 0.4335-1.179 3.39 0.16816 2.5159 1.1463 5.073 3.3839 5.6826 4.9724s0.5251 2.305-0.1878 1.5922-2.5508-0.27761-4.0843 0.96724c-2.3381 1.8978-2.5953 1.7481-1.5926-0.92749 1.6435-4.3853-0.1666-3.9982-4.2626 0.91166-3.7026 4.4384-4.6624 7.744-1.7204 5.9258 2.5903-1.6009 2.2636 1.5654-0.4406 4.2696-1.8031 1.803-1.7102 2.6175 0.4558 4.0008 1.9894 1.2705 3.5556 0.63804 5.8323-2.3551 1.7119-2.2506 4.7888-6.273 6.8376-8.9387 4.4129-5.7419 4.7589-8.8283 0.9899-8.8283s-3.4218-2.46 0.9117-6.3817c2.0056-1.8151 3.6466-2.401 3.6466-1.3019s-0.8919 2.5496-1.9822 3.2234c-1.3781 0.8517-1.4017 1.8056-0.0773 3.13 3.133 3.133 7.8748-1.9111 5.6697-6.0312-2.2275-4.1621-9.4364-32.541-9.3619-36.854 0.0303-1.755-0.7628-3.1908-1.7626-3.1908s-1.3105 0.8205-0.6907 1.8233 0.4775 1.8233-0.3162 1.8233-6.7908-5.8058-13.327-12.902l-11.884-12.902-7.7583 10.041c-4.267 5.5228-8.2081 11.214-8.7579 12.647s1.2546 5.3867 4.0098 8.7863l5.0095 6.1811-5.468-5.0142c-11.018-10.103-11.211-3.4512-0.2131 7.3422l7.7904 7.6457 7.9943-10.019c4.397-5.5102 8.3581-9.6548 8.8027-9.2102s-1.8727 4.1444-5.1493 8.2218-5.4104 7.9608-4.7414 8.6297 1.4739 0.87438 1.7888 0.45654c6.9603-9.2362 14.724-17.979 15.381-17.322 0.4687 0.46859-2.6582 5.015-6.9486 10.103-7.5432 8.9458-7.6853 9.3438-4.3005 12.058s3.3687 2.7437-0.3625 0.94729c-6.1018-2.9378-6.6798-0.00868-1.1768 5.9635l5.0396 5.4694-5.26-3.9755c-6.7182-5.0776-7.0006-5.0387-10.86 1.4944-1.7771 3.0085-4.0039 5.47-4.9484 5.47s1.1531-3.9954 4.6614-8.8786c6.7611-9.411 7.4812-11.178 4.5552-11.178-1.0028 0-1.8233 1.1624-1.8233 2.5831s-0.6631 2.8565-1.4736 3.1908c-2.3879 0.98487-13.439 17.929-11.693 17.929 0.8773 0 5.6346 3.8283 10.572 8.5073 6.2745 5.9464 7.3302 7.5048 3.5067 5.177-13.124-7.9903-32.3-23.683-36.918-30.213-5.7357-8.11-7.735-8.7196-11.072-3.3759-3.041 4.8694-0.726 8.5652 15.776 25.186 12.932 13.025 24.185 20.432 39.304 25.872 9.2754 3.3374 9.3359 3.3349 12.596-0.53106 3.23-3.831 3.1613-3.9473-4.9738-8.421zm7.2534-29.096c-2.7628-3.8449-2.8703-4.3998-0.4792-2.4737 1.6956 1.3657 4.3429 1.9996 5.8832 1.4085 2.2906-0.879 2.4492-0.41831 0.8707 2.531-2.3676 4.4239-1.9772 4.5151-6.2747-1.4658zm-202.56 35.309c7.1436-2.9848 11.252-8.5475 14.649-19.837 3.2657-10.851 1.6798-12.733-10.072-11.953-6.37 0.423-9.8979-0.10108-10.382-1.5423-0.44224-1.3161 0.94319-2.0886 3.4889-1.9452 2.3223 0.13083 7.2993 0.08756 11.06-0.09614l6.8375-0.33402v-24.061l-10.94 1.2697c-6.7204 0.77999-10.94 0.588-10.94-0.49773 0-0.97211 4.016-2.3002 8.9244-2.9513 11.553-1.5325 13.228-3.6416 10.95-13.783-0.98791-4.3969-1.3409-9.1808-0.78447-10.631 0.82988-2.1626-0.22134-2.3698-5.848-1.1524-3.7729 0.81628-9.7315 1.6404-13.241 1.8313s-8.6914 1.2572-11.515 2.3696c-7.2691 2.8642-28.601 2.6726-28.589-0.25671 0.00661-1.5964 3.7647-2.2946 12.545-2.3305 7.7266-0.03169 13.665-0.9886 15.479-2.4944 1.619-1.3436 4.7616-1.9675 6.9837-1.3865 4.2932 1.1227 19.167-1.9626 20.594-4.272 0.46707-0.75574-0.42319-5.6588-1.9784-10.896-2.906-9.7854-2.2814-14.864 0.87548-7.1183 2.5605 6.282 6.8685 22.71 9.266 35.335 2.6128 13.758 2.7602 56.68 0.21766 63.361-2.3468 6.166-1.5322 6.2347 5.9805 0.50447 18.1-13.806 21.951-49.187 11.315-103.98-3.4546-17.798-4.6142-29.694-4.6544-47.749-0.05465-24.556 1.2918-33.466 9.8666-65.297 5.4652-20.288 8.2802-37.187 9.6273-57.795 1.252-19.153-1.355-30.07-8.9093-37.307l-5.3853-5.1594 1.1545 19.134c0.75241 12.47 0.40731 21.992-0.99086 27.339-1.1799 4.5128-3.4176 15.59-4.9726 24.615-1.555 9.0255-4.4541 19.977-6.4424 24.336s-3.8181 12.154-4.0663 17.322-1.4732 15.549-2.7224 23.07c-1.5544 9.3589-1.8949 22.657-1.0788 42.132 1.3285 31.706 0.63422 34.013-9.5652 31.773-4.196-0.92161-7.0582 0.0299-13.294 4.4194-12.992 9.1458-31.07 14.583-48.636 14.627-8.3393 0.02114-16.667-0.76703-18.507-1.7515-4.6194-2.4722-5.6452 1.0117-3.3989 11.544l1.8085 8.4794h9.516c5.2338 0 10.487-0.97092 11.674-2.1576 2.6118-2.6118 4.8765-0.82436 3.5001 2.7625-0.59939 1.562-5.0192 3.0886-11.165 3.8565-8.8854 1.1102-10.162 1.7737-10.086 5.2424 0.04817 2.1842 1.4869 6.843 3.1971 10.353 2.7117 5.5652 4.0715 6.452 10.628 6.9314 5.0918 0.37229 8.4739-0.40544 10.478-2.4094 2.7299-2.7299 2.9591-2.6753 2.9591 0.70606 0 2.9555-1.6168 3.9076-8.35 4.9174-4.5925 0.68868-8.7598 2.3202-9.2608 3.6255s0.79047 6.2193 2.8698 10.92l3.7805 8.5464 8.6711-1.2909c4.7691-0.70996 9.7166-2.1515 10.994-3.2034 2.8469-2.3436 4.8705-0.66901 3.5018 2.8979-0.58931 1.5358-4.8434 3.1523-10.254 3.8964-5.0855 0.69946-9.2464 1.9007-9.2464 2.6695 0 2.3687 9.2336 15.394 13.389 18.888 10.11 8.4994 26.387 11.021 38.493 5.963zm-27.267-32.061c-0.66583-1.0773 1.379-1.8233 4.9977-1.8233 3.3685 0 7.0955-0.97092 8.2822-2.1576 3.0417-3.0417 5.0519-0.34493 2.255 3.0252-2.5736 3.101-13.783 3.7906-15.535 0.95574zm-26.056-9.3802c0.44809-1.3593 2.8017-2.7552 5.2302-3.102s5.4411-1.4729 6.6947-2.5024c1.6497-1.3549 2.2792-1.0845 2.2792 0.97877 0 3.4478-0.97509 4.0826-8.8769 5.7788-4.7593 1.0216-5.9585 0.76206-5.3272-1.1531zm17.851-3.3832c0-1.0028 4.6533-1.8233 10.341-1.8233 7.0633 0 11.397-0.95637 13.675-3.0176 3.1272-2.8301 3.3344-2.7855 3.3344 0.71659 0 2.0538-1.2979 4.2322-2.8841 4.8409-4.7629 1.8277-24.466 1.2506-24.466-0.71659zm32.82-3.6467c3.5838-2.316 9.1167-2.316 9.1167 0 0 1.0028-2.6666 1.8108-5.9258 1.7954-4.4968-0.02119-5.2662-0.45418-3.1908-1.7954zm-36.011-6.6399c-3.52-1.4784-2.6937-4.6774 0.91251-3.5328 4.4968 1.4272 24.54-2.082 26.075-4.5653 0.88471-1.4315 1.6398-1.4692 2.4716-0.12336 0.65872 1.0658-0.67459 3.1178-2.9629 4.5599-4.391 2.7672-22.626 5.2872-26.496 3.6616zm-24.159-13.417c0-1.0028 2.3944-1.8233 5.3209-1.8233s6.8238-0.56387 8.6608-1.253c2.9401-1.103 3.0404-0.88477 0.83754 1.8233-2.697 3.3156-14.819 4.3406-14.819 1.253zm19.601 0.78097c-2.655-2.6962-1.2961-3.7069 5.2326-3.892 11.136-0.31565 22.573-2.4914 22.573-4.294 0-0.9414 0.82051-1.7116 1.8233-1.7116 3.6807 0 1.6897 5.611-2.565 7.2287-6.3528 2.4154-25.459 4.2995-27.064 2.669zm47.287-3.7874c-0.65068-0.65067-3.3865-1.2661-6.0796-1.3675s-5.2348-1.2017-5.6482-2.445c-0.52056-1.5654 1.0188-2.0544 5.006-1.5901 5.7033 0.66404 10.663 3.8278 8.8469 5.6436-0.51813 0.51813-1.4744 0.40968-2.1251-0.24099zm-69.167-20.304c-7.1576-0.90657-6.2127-4.0395 1.2184-4.0395 3.4279 0 7.6424-0.54099 9.3655-1.2022 2.1246-0.8153 2.8759-0.43123 2.3344 1.1934-1.0354 3.1062-6.5966 4.849-12.918 4.0484zm16.258-3.4318c-2.6059-2.6059-0.93621-3.4125 5.7453-2.7753 8.1037 0.77282 22.212-2.5959 22.212-5.3037 0-1.0234 0.8205-1.3536 1.8233-0.73379 3.595 2.2218 1.7207 6.0607-3.9188 8.0266-6.2854 2.1911-23.921 2.7272-25.862 0.78615zm34.408-7.5288c-2.2769-2.277-0.56008-3.2608 6.1577-3.5287 4.1527-0.1656 7.4928 0.64083 7.9869 1.9283 0.56845 1.4813-1.4672 2.2737-6.1577 2.3967-3.8538 0.10105-7.4479-0.25729-7.9869-0.7963zm257.39 86.435c-15.345-23.112-21.509-46.113-23.019-85.896l-1.1072-29.173-1.464 17.322c-3.1443 37.201 6.5408 77.54 24.426 101.74 8.1628 11.043 9.0735 7.9244 1.1645-3.9875zm-46.867 2.3205c0-1.0028-0.8205-1.3162-1.8233-0.69645s-1.8233 1.9474-1.8233 2.9502 0.8205 1.3162 1.8233 0.69646 1.8233-1.9474 1.8233-2.9502zm111.48-12.391c4.7016-3.8117 4.516-4.5485-1.6213-6.435-3.2401-0.99593-4.1026-0.54523-4.1026 2.1438 0 1.8727-0.9846 4.3895-2.188 5.5929-3.7561 3.7561 3.0556 2.6354 7.9119-1.3017zm11.434 0.94075c3.3553-1.4019 6.6384-3.4192 7.2957-4.4828 0.9927-1.6063-14.61 4.2249-17.008 6.3565-1.8092 1.608 4.1147 0.46509 9.7124-1.8738zm-24.603-0.0236c-0.4179-0.41207-6.093-2.0963-12.611-3.7427s-13.493-3.4365-15.498-3.9779c-3.0453-0.82208-2.9138-0.44912 0.7973 2.2619 2.4442 1.7855 7.3671 3.8183 10.94 4.5174 7.4988 1.4673 17.488 2.0417 16.372 0.94128zm-239.13-18.396c2.5363-4.0113 7.8106-10.057 11.721-13.436s6.6797-6.5722 6.1545-7.0973-2.1694 0.05326-3.654 1.2853c-3.5653 2.959-6.943 0.70691-5.5451-3.6973 2.3344-7.3552-0.8507-2.9931-6.269 8.5854-3.1088 6.6433-8.1091 14.877-11.112 18.297s-5.4596 7.5633-5.4596 9.2075c0 4.084 7.9159-3.2621 14.164-13.145zm114.37 4.3332 6.7114-9.3418-7.8317-7.9799c-4.3074-4.389-8.6864-7.9784-9.7312-7.9766-1.9398 0.00332-11.928 14.608-11.928 17.441 0 1.2876 14.531 17.199 15.707 17.199 0.1986 0 3.3812-4.2038 7.0724-9.3418zm125.81 5.716c0.6389-1.0336-0.0931-1.3392-1.7157-0.71659-3.1587 1.2121-3.7366 2.519-1.114 2.519 0.9437 0 2.2171-0.81111 2.8297-1.8025zm28.275-2.7559c2.9093-3.5055-0.0589-3.5423-4.6657-0.05799-2.9733 2.249-3.0648 2.6863-0.5716 2.735 1.632 0.03189 3.9889-1.1728 5.2373-2.677zm-239.45-4.1025c8.7339-5.89 35.032-25.5 44.766-33.381 3.7384-3.0267 10.215-11.255 14.391-18.286 6.4068-10.784 7.2864-13.411 5.6251-16.797-4.3281-8.8212-4.4693-12.442-0.6247-16.024 4.7837-4.4567 7.005-4.408 8.4629 0.18535 0.6412 2.0202 1.9272 3.2026 2.8579 2.6274s1.7179 1.259 1.7497 4.076l0.0576 5.1218 4.6083-5.47c2.5346-3.0085 7.4489-8.5167 10.921-12.24l6.3122-6.7704-4.236-2.7756c-5.7394-3.7606-15.897-5.7136-15.897-3.0565 0 1.1282-1.2792 2.0512-2.8427 2.0512-1.6026 0-2.302-0.87467-1.6032-2.0052 0.9011-1.4581 0.2169-1.4581-2.5076 0-5.1891 2.7771-6.6717 2.5057-3.9866-0.72975 1.8562-2.2365 1.7307-2.7765-0.6883-2.9629-1.6271-0.12535-3.5737-0.37681-4.3258-0.55878s-3.9513-0.94689-7.1093-1.6998c-3.7304-0.88944-9.4064-0.30364-16.203 1.6722-6.7941 1.9751-16.726 3.0007-28.332 2.9257l-17.871-0.1156 4.4897 6.6161c2.4694 3.6388 6.2129 12.289 8.319 19.223 5.1222 16.864 4.1535 46.665-1.9698 60.597-7.4469 16.943-16.235 22.619-25.247 16.307-2.2288-1.5611-4.0523-2.1614-4.0523-1.334 0 2.3136 9.5697 7.716 13.764 7.7705 2.0548 0.02669 7.0819-2.2079 11.171-4.9656zm204.31 3.9126c-0.6059-0.60588-2.1785-0.67065-3.4947-0.14394-1.4546 0.58205-1.0225 1.0141 1.1016 1.1016 1.922 0.07917 2.999-0.35176 2.3931-0.95765zm-16.933-2.375c0.5619-0.9093-0.6204-1.2238-2.6274-0.699-4.2575 1.1133-4.7956 2.3523-1.0219 2.3523 1.4452 0 3.0873-0.74397 3.6493-1.6533zm30.19-2.0352c0-1.6905-6.9666-0.13851-8.1782 1.8219-0.4555 0.73692 1.1983 0.95247 3.6751 0.47902s4.5031-1.5089 4.5031-2.3009zm10.675-3.7202c0.6725-2.0175-0.0346-1.9535-3.4468 0.31207-2.3611 1.5677-4.6736 3.9926-5.139 5.3887-0.6725 2.0175 0.0347 1.9535 3.4468-0.31209 2.3611-1.5677 4.6737-3.9926 5.139-5.3887zm-17.145 0.91766c8.602-5.6362 6.7241-8.3936-2.2261-3.2687-11.05 6.3274-10.835 6.1131-6.1298 6.1131 2.2081 0 5.9682-1.28 8.3559-2.8444zm37.534-4.5424c5.6522-7.9378 1.1646-7.9724-5.21-0.04014-4.765 5.9295-5.0915 6.9011-2.0515 6.1061 1.9885-0.51997 5.2562-3.2497 7.2615-6.066zm-21.946-2.6416c4.0443-4.1727 5.2329-6.3817 3.4338-6.3817-2.706 0-12.55 9.017-12.55 11.496 0 2.7727 3.2272 0.96248 9.1167-5.1139zm-40.113 2.7922c0-0.97135-1.2308-1.2938-2.7351-0.71659s-2.7349 1.372-2.7349 1.7661 1.2308 0.71659 2.7349 0.71659 2.7351-0.79475 2.7351-1.7661zm-138.5-3.8464c1.1154-2.084 1.5319-5.0817 0.9257-6.6616-0.9598-2.5011-1.4418-2.4237-3.7291 0.59831-3.0071 3.9732-3.5941 9.8524-0.9836 9.8524 0.9675 0 2.6717-1.7051 3.787-3.7891zm159.47-0.24172c1.2155-1.2155-0.304-1.3914-4.5584-0.52747-3.51 0.71272-7.2022 2.1164-8.205 3.1192-1.2156 1.2155 0.3038 1.3914 4.5583 0.52748 3.5099-0.71273 7.2021-2.1164 8.2051-3.1192zm27.35 0.3842c1.8151-2.0057 2.8899-3.6467 2.3886-3.6467s-2.3968 1.641-4.2119 3.6467-2.89 3.6467-2.3885 3.6467 2.3967-1.641 4.2118-3.6467zm-154.07-25.925c7.5212-9.8923 14.796-19.798 16.166-22.013s4.5337-5.5668 7.0309-7.4488l4.5403-3.4218-2.9437 4.4928c-2.7612 4.214-2.7165 4.6984 0.7183 7.8069 2.0141 1.8228 3.662 4.1505 3.662 5.1727s-2.0512-0.06846-4.5583-2.4238c-7.5803-7.1213-5.1066-1.6084 2.9716 6.6228l7.5301 7.6725 4.1847-3.9568c3.5956-3.3998 4.2595-6.0703 4.7154-18.97 0.6634-18.768-1.3364-21.605-9.1616-12.999-9.0093 9.9094-6.4905 4.558 3.5118-7.461 5.0565-6.076 9.0297-12.067 8.8291-13.314s0.1346-3.4972 0.7446-5.0015c2.9794-7.3464 5.0379-18.861 3.6245-20.274-0.8869-0.88694-5.931 2.8522-11.528 8.5458l-9.9517 10.123 5.9258 5.3354c3.2593 2.9345 5.9259 5.8158 5.9259 6.403 0 1.1544-2.1878 3.3206-9.1019 9.0121l-4.43 3.6466 3.3087-5.2391c3.2672-5.1734 3.2527-5.2951-1.1578-9.7056l-4.4665-4.4665-7.7788 9.2909c-7.3384 8.7649-7.6515 9.5982-5.5301 14.72 2.5264 6.0991 6.1738 7.0108 8.9536 2.2381 1.0222-1.755 1.8835-2.5422 1.914-1.7495s-1.7907 3.9976-4.0471 7.1218c-6.1163 8.4689-14.131 17.094-14.131 15.208 0-0.91098 1.7247-3.4922 3.8326-5.736 3.7523-3.9941 3.7632-4.1974 0.5186-9.69-1.8228-3.0857-3.9038-5.6103-4.6245-5.6103-1.5581 0-21.607 28.774-21.607 31.01 0 0.8501 2.0512 3.1591 4.5583 5.1312 4.514 3.5507 6.0759 7.6191 2.9251 7.6191-1.8528 0-13.007 16.755-12.852 19.305 0.0557 0.91505 1.9019-0.73793 4.1025-3.6733s10.155-13.431 17.676-23.323zm-6.7565 0.02884c-1.032-1.301-2.8608-4.4167-4.0639-6.9238l-2.1877-4.5583 3.3132 3.8829c1.8223 2.1356 4.3125 4.1868 5.5339 4.5583 1.3224 0.40217 1.626 1.6324 0.7508 3.0409-1.2046 1.9384-1.8088 1.9384-3.3463 0zm89.707 20.944c10.059-6.7747 10.06-6.7766 6.4163-10.421s-3.6462-3.6433-11.715 4.2759c-4.5684 4.4836-7.6542 9.0054-7.1111 10.421 1.2793 3.3337 0.9351 3.4523 12.41-4.2759zm58.372-2.3644c0.6451-1.0438-0.8751-0.91406-3.5451 0.30249-2.571 1.1714-4.6745 2.8475-4.6745 3.7246 0 1.8657 6.5658-1.3511 8.2196-4.0271zm-157.2-6.1492c4.3782-6.6079 4.5039-7.3745 1.869-11.396-1.5537-2.3712-3.437-4.3114-4.1852-4.3114s-3.2803 3.6192-5.6269 8.0427c-3.7224 7.0168-3.9762 8.6803-1.9894 13.041 2.4769 5.4362 2.9315 5.1901 9.9325-5.3762zm97.004-2.8981 5.4618-5.7381 4.282 5.1254c2.8132 3.3672 4.5894 4.3396 5.1781 2.8348 0.4929-1.2598 1.5948-1.8587 2.4487-1.331 1.8865 1.1659 21.839-8.3896 21.839-10.459 0-3.1196-8.3321-14.137-10.707-14.159-2.0176-0.0182-2.0627-0.55258-0.2326-2.7576 3.5041-4.2223-0.8072-3.2334-4.7112 1.0805-1.8992 2.0986-5.1033 4.6543-7.1201 5.6794s0.2367-2.053 5.008-6.8402 8.8737-8.3686 9.1166-7.9586c3.835 6.4739 6.3056 12.492 4.7278 11.517-1.211-0.7484-1.685-0.23338-1.1799 1.282 0.4644 1.3931 2.0067 2.5514 3.4273 2.5739s2.3605 1.3779 2.0885 3.0119c-0.8131 4.8833 8.6176 2.9916 18.302-3.6712 4.7471-3.2661 8.6311-6.5828 8.6311-7.3703s1.0791-1.4319 2.3979-1.4319 5.0009-1.9246 8.1825-4.2769 6.2743-3.7873 6.8726-3.189-3.0838 4.2023-8.1825 8.0088-9.2705 7.9766-9.2705 9.2668c0 3.5922 1.6769 2.9051 10.446-4.2801 8.6716-7.1057 11.825-12.69 9.6434-17.077-2.1563-4.3354-3.5261-18.354-1.6821-17.214 0.9074 0.56081 1.6499 3.835 1.6499 7.2759 0 6.0815 0.1019 6.169 3.6467 3.1338 4.7505-4.0676 4.6657-12.169-0.1989-19.001-4.9841-6.9996-6.0687-5.7216-2.4647 2.9041 1.5699 3.7572 2.5667 7.6943 2.215 8.7492s-1.6582-1.4831-2.9035-5.6397-3.1003-7.5575-4.1221-7.5575-1.2723 0.94728-0.5567 2.105c0.7977 1.2908 0.501 1.6107-0.7671 0.82688-1.1376-0.703-6.6721 2.1229-12.299 6.2798-7.814 5.7725-10.01 8.4016-9.297 11.129 0.7629 2.9175 0.4595 3.1774-1.6577 1.4202-3.0868-2.5618-3.3042-1.1-0.6458 4.3414 1.8891 3.8668 1.848 3.862-1.4112-0.16737-2.7696-3.4239-3.8123-3.7429-5.9603-1.8233-2.2404 2.0022-2.2577 1.8709-0.1247-0.94144 3.6029-4.7505 0.2294-7.4198-6.2593-4.9528-6.2125 2.362-10.668-0.8936-14.06-10.274-1.8724-5.1779-3.0959-6.1204-7.9459-6.1204-6.9698 0-11.998 5.0088-10.877 10.834 0.9044 4.6956 2.2111 6.4878 4.7307 6.4878 0.9193 0 1.5328 0.41026 1.3633 0.91167-0.6252 1.8498 4.1835 9.1905 5.4912 8.3824 0.7443-0.46005 1.4818 0.87006 1.639 2.9558 0.3128 4.1531 0.4367 4.2594-9.4014-8.0694-3.7668-4.7206-6.3674-9.362-5.7789-10.314 0.6142-0.99388-0.6057-1.293-2.8643-0.70238-2.5693 0.67188-3.5088 0.34029-2.7078-0.95572 0.6745-1.0915 0.4735-2.4499-0.4468-3.0187-1.8941-1.1706-20.266 18.198-20.266 21.365 0 1.1308 3.5182-1.3968 7.8181-5.6169 10.412-10.218 13.357-9.8971 3.2918 0.35885-4.3355 4.4175-7.5832 8.8129-7.2171 9.7676 1.9303 5.0348 18.27 20.772 20.628 19.867 1.8795-0.72123 2.3225-0.11896 1.5329 2.0835-0.8497 2.3696-0.05 2.1334 3.4011-1.0045 6.467-5.8801 8.623-5.0719 2.7692 1.0381-2.7087 2.8273-4.2981 5.8102-3.5319 6.6286s-0.3847 0.56415-2.5575-0.56508c-3.4035-1.7688-5.0446-1.1439-11.852 4.5137-8.5164 7.0782-11.564 11.425-5.8329 8.3194 1.871-1.0139 5.8596-4.4256 8.8636-7.5816zm39.948-36.254c3.7161-4.1778 4.7315-4.7186 4.7315-2.5202 0 0.76161-1.8461 2.5188-4.1024 3.905-4.0879 2.5112-4.0903 2.5063-0.6291-1.3848zm1.0849-6.6399c2.3553-2.5071 4.6926-4.5583 5.194-4.5583s-1.0154 2.0512-3.3707 4.5583-4.6926 4.5583-5.194 4.5583 1.0154-2.0512 3.3707-4.5583zm8.2636 49.323c6.8773-2.8736 8.3403-4.9364 2.9136-4.1082-3.5915 0.5481-13.113 6.4902-10.663 6.6545 0.7843 0.0526 4.2715-1.0932 7.7492-2.5463zm54.494-11.788c-1.094-1.094-11.555 11.136-11.562 13.518-3e-3 1.0028 2.7862-1.4394 6.1984-5.4273s5.8258-7.6287 5.3637-8.0908zm-24.7 9.9917c2.781-1.4381 6.2205-4.0174 7.6433-5.7318 2.1184-2.5525 1.2086-2.4139-5.0233 0.76539-4.1856 2.1353-8.1244 4.7146-8.7531 5.7318-1.5675 2.5362 0.1672 2.3197 6.1331-0.76537zm172.9-0.33769c11.117-3.7744 27.055-13.945 29.753-18.987 3.3754-6.3069 0.8843-6.0858-8.021 0.71183-4.5913 3.5046-9.9633 6.8847-11.938 7.5114-2.0111 0.63831-3.1797 2.2088-2.6571 3.5707 1.3398 3.4912-14.097 8.326-26.515 8.3042-17.977-0.03153-31.952-9.0359-41.023-26.432-1.6393-3.1439-2.8507-4.1926-2.8571-2.4733-0.0062 1.6416 2.6553 6.9447 5.9146 11.785 11.499 17.077 34.931 23.619 57.343 16.01zm-255.76-7.8549 6.9922-7.1607-9.6448-11.089c-5.3047-6.0989-10.035-10.699-10.512-10.222s1.704 3.7946 4.8459 7.3731 5.6794 7.0932 5.6387 7.8104-2.3609-1.3673-5.1558-4.6322-5.4973-5.5205-6.0054-5.0123c-0.9681 0.96808 1.4488 21.397 3.1828 26.903 1.44 4.5727 2.8173 4.0598 10.658-3.9699zm75.798-2.9959c0-0.50141-1.641-0.03341-3.6467 1.04s-3.6467 2.3619-3.6467 2.8633 1.641 0.03342 3.6467-1.04 3.6467-2.3619 3.6467-2.8633zm-19.984-0.8204c3.9714-2.026 7.2207-4.4876 7.2207-5.47 0-2.6509-1.184-2.2611-9.1558 3.0144-10.816 7.1579-9.8029 8.4439 1.9351 2.4556zm35.936 0.90391c4.9804-2.4845 8.9194-7.6 7.1865-9.3329-0.3579-0.35792-3.8644 2.1869-7.7921 5.6551-7.8939 6.9703-7.7497 7.846 0.6056 3.6778zm-13.343-7.9826c-0.4797-0.47969-2.2885 0.60656-4.0195 2.4139-3.0073 3.1397-2.9684 3.1785 0.8721 0.87215 2.2107-1.3277 3.6271-2.8064 3.1474-3.2861zm17.298-4.2622c3.2217-2.748 5.3806-5.7681 4.7975-6.7115s-0.2262-2.2306 0.7931-2.8605c2.2312-1.379 2.4642-4.5767 0.3335-4.5767-2.8295 0-15.812 12.389-14.446 13.786 0.7459 0.76259 3.0023-0.1031 5.0141-1.9238s3.6579-2.409 3.6579-1.3075-2.4615 3.4569-5.47 5.234-5.47 3.9156-5.47 4.752c0 1.933 3.3717-0.06436 10.79-6.3917zm23.854-5.8095c0-1.0408-2.0513 1.1263-4.5583 4.8158s-4.5584 7.3214-4.5584 8.0708 2.0513-1.4177 4.5584-4.8158 4.5583-7.03 4.5583-8.0708zm130.52 11.717c4.6474 0 9.8808-7.0275 9.8439-13.219-0.0193-3.2592-1.2473-10.028-2.7289-15.042-2.4824-8.4013-2.6134-8.5444-1.6698-1.8233 3.2909 23.439 3.3737 22.208-1.7181 25.544-3.072 2.0129-7.0965 2.8473-11.342 2.3516-5.8472-0.68262-6.2101-0.49729-3.2564 1.6625 1.8284 1.337 4.4406 2.0024 5.805 1.4789s3.6442-0.95191 5.0665-0.95191zm-281.85-1.8233c0-1.0028-0.8205-1.8233-1.8233-1.8233s-1.8233 0.8205-1.8233 1.8233 0.8205 1.8233 1.8233 1.8233 1.8233-0.8205 1.8233-1.8233zm100.28-1.9309c0-0.94364-0.8205-1.7157-1.8234-1.7157s-1.8233 1.2792-1.8233 2.8426 0.8205 2.3355 1.8233 1.7157 1.8234-1.899 1.8234-2.8426zm145.71 1.4557c-0.4179-0.26139-2.811-2.1075-5.3181-4.1025l-4.5583-3.6272 3.4734 4.1025c1.9105 2.2564 4.3035 4.1025 5.3181 4.1025s1.5027-0.21387 1.0849-0.47526zm7.4904-7.8484c0.978-2.5724 1.6349-8.1107 1.4597-12.307l-0.3186-7.6305-0.7144 8.205c-0.4405 5.0592-2.188 9.7779-4.5577 12.308-3.3423 3.5679-3.4394 4.1025-0.7452 4.1025 1.7039 0 3.8982-2.1047 4.8762-4.677zm28.271-5.1541c0.6756-5.4071 0.7014-11.491 0.0575-13.52-1.5442-4.8656 0.667-13.413 3.0836-11.919 1.2099 0.74774 1.5007-0.4102 0.8044-3.2034-0.5997-2.4059-1.6477-7.8798-2.3287-12.164-1.36-8.5546-3.6166-11.378-5.0889-6.3677-1.3777 4.6888-0.4531 57.005 1.0075 57.005 0.6799 9e-5 1.789-4.4238 2.4646-9.831zm-37.433 7.3194c0-0.37862-1.4359-1.8145-3.1909-3.1908-2.8919-2.268-2.9563-2.2035-0.6884 0.68841 2.382 3.0372 3.8793 4.0031 3.8793 2.5024zm1.8233-9.4598c0-2.573 0.8032-6.179 1.7849-8.0133s2.2598-8.1392 2.8403-14.011c0.9815-9.9298 0.8706-10.364-1.5881-6.2094-1.4538 2.4566-2.2332 5.5351-1.732 6.8412s-0.4079 5.6717-2.0202 9.7013c-3.302 8.2524-3.8515 16.369-1.1082 16.369 1.0028 0 1.8233-2.1052 1.8233-4.6782zm-20.112-6.2618c0-2.4311-0.1964-2.4311-1.7675 0-0.9721 1.5043-1.7674 3.9658-1.7674 5.47 0 2.4311 0.1963 2.4311 1.7674 0 0.9722-1.5042 1.7675-3.9658 1.7675-5.47zm8.5948 3.3048c-0.5821-1.4545-1.0142-1.0225-1.1016 1.1016-0.0792 1.9221 0.3517 2.999 0.9576 2.3931s0.6706-2.1785 0.144-3.4947zm-86.591-9.4303c1.4396-2.6901 1.3047-3.1269-0.6248-2.0222-5.1155 2.9288-8.8427 6.9855-8.8427 9.6246 0 2.2024 0.7431 2.0625 3.8156-0.71802 2.0985-1.8992 4.6418-4.9971 5.6519-6.8843zm-11.619 1.4251c4.1918-3.5881 7.6215-8.1395 7.6215-10.114 0-3.192-0.8601-2.9232-7.7491 2.4213-8.7546 6.7917-10.416 8.6891-10.456 11.938-0.0453 3.6962 2.4989 2.6759 10.584-4.2446zm32.238-10.798 2.8901-7.2933-3.7787 4.5583c-2.0783 2.5071-5.4179 7.8403-7.4213 11.852l-3.6427 7.2933 4.5313-4.5583c2.4922-2.5071 5.8318-7.8403 7.4213-11.852zm-202.49 7.3946c-1.7203-2.6254-3.538-4.3632-4.0394-3.8618s0.4958 3.0597 2.216 5.6851 3.5379 4.3632 4.0394 3.8618-0.4958-3.0597-2.216-5.6851zm272.15-5.1155c-0.4347-2.2564-0.7903-0.41024-0.7903 4.1025s0.3556 6.3589 0.7903 4.1025 0.4346-5.9486 0-8.205zm-208.97-4.8755c5.3553-5.9408 10.392-10.397 11.192-9.9023s0.932 1.7447 0.2932 2.7783c-0.7318 1.1841 0.2313 1.1339 2.6037-0.1358 5.5378-2.9637 6.556-5.6421 2.1449-5.6421-2.124 0-3.3548-0.8205-2.735-1.8233s0.322-1.8233-0.6617-1.8233-4.2268-4.8791-7.2067-10.842c-4.9235-9.8528-5.6574-10.56-8.0416-7.7492-1.443 1.7013-3.8974 5.965-5.4543 9.4749-3.3266 7.4997-6.1845 36.467-3.5979 36.467 0.9497 0 6.1084-4.8606 11.464-10.801zm-2.373-18.848c-3.3047-4.1751-4.9829-6.9584-3.7294-6.1851 1.3485 0.8319 2.2792 0.49348 2.2792-0.82874 0-2.8169 1.9705-0.97328 2.4673 2.3084 0.5863 3.8743 3.1165 7.1494 4.7454 6.1427 0.8199-0.50672 2.4252 0.20456 3.5672 1.5807 1.5892 1.9149 1.4432 2.745-0.6223 3.5376-1.7238 0.66147-4.8696-1.7069-8.7074-6.5555zm204.59 21.033c0-8.0703-0.9555-7.3362-2.3689 1.8198-0.633 4.1013-0.3691 6.4503 0.6536 5.8182 0.9435-0.58307 1.7153-4.0202 1.7153-7.6381zm-365.04-5.8839c-0.498-5.8971-1.1124-6.5174-7.4707-7.542-5.5559-0.89528-6.7296-0.5991-5.9259 1.4954 0.5513 1.4365 1.0671 3.9806 1.1462 5.6535 0.0897 1.8953 0.4906 2.1827 1.0636 0.76253 1.5245-3.7779 4.2625-2.5648 4.2625 1.8884 0 2.9844 1.06 4.1676 3.7334 4.1676 3.1588 0 3.6499-0.98911 3.1909-6.4256zm212.71 5.514c0.5754-0.93112-0.7478-1.9568-2.9405-2.2792-5.4957-0.80807-6.7478-5.2947-1.3102-4.6944 4.5973 0.50747 7.2541-5.3735 3.481-7.7054-3.281-2.0278-11.002 0.07752-11.002 3.0001 0 7.9236 8.7355 16.591 11.771 11.679zm-6.3012-10.963c0-0.94365 0.8205-2.2228 1.8233-2.8426s1.8234 0.15228 1.8234 1.7157-0.8206 2.8426-1.8234 2.8426-1.8233-0.77207-1.8233-1.7157zm40.85-5.8615c-0.5435-0.87941-1.8787-1.0485-2.9672-0.37579-1.2052 0.74487-1.4524 0.37105-0.6322-0.9561 0.7407-1.1986 2.7136-1.7543 4.3842-1.235 3.6273 1.1276 9.0012-1.8214 6.988-3.8348-0.7777-0.77759-2.1457-0.22982-3.04 1.2173-1.4112 2.2835-1.7628 2.2765-2.6607-0.05282-1.0892-2.8253-11.925-4.1979-11.925-1.5105 0 0.8589-2.1197 1.5616-4.7103 1.5616-2.9849 0-4.4134 0.83484-3.8998 2.2792 0.4458 1.2535-0.7332 5.356-2.6201 9.1167s-2.5934 6.8375-1.5702 6.8375 1.8604 1.2299 1.8604 2.7331c0 1.7897 3.7592-0.18624 10.89-5.7242 5.9898-4.6515 10.446-9.1768 9.9023-10.056zm-18.869 11.859c0.1158-1.7764 10.744-10.522 11.558-9.5098 0.2957 0.36813-2.2065 3.0065-5.5603 5.8631s-6.0527 4.4976-5.9972 3.6467zm-96.403 0.79286c-1.3083-1.3083-2.1575-1.416-2.1575-0.27349 0 1.0363 0.5469 2.4311 1.2155 3.0997s1.6395 0.79164 2.1576 0.2735-0.0289-1.913-1.2156-3.0997zm150.07-8.4373c0.9898-2.162 2.481-3.931 3.3137-3.931s0.9634-1.8461 0.2906-4.1025c-1.1592-3.8886-1.0869-3.9242 1.3879-0.68241 2.5071 3.2841 2.7697 3.2182 6.6029-1.6548 4.5175-5.7432 8.6626-19.267 10.042-32.762 0.5124-5.0142 0.5255-7.7263 0.029-6.0269-0.5673 1.9421-1.9803 2.6762-3.8041 1.9764-2.4588-0.94354-2.7452 0.05123-1.8775 6.5209 1.2489 9.3111-1.4016 12.552-11.599 14.183-3.9772 0.63598-8.3002 2.6824-9.6067 4.5476s-2.879 2.8875-3.4947 2.2718-4.0477 1.9854-7.6267 5.7802l-6.5072 6.8997 4.5994 6.6369c2.5297 3.6503 4.5993 8.1338 4.5993 9.9634 0 2.9775 0.6218 2.8536 5.9259-1.1812 3.2591-2.4792 6.7358-6.2766 7.7257-8.4387zm9.2448 0.12427c-1.5981-1.5981-8.3152 5.3492-8.2521 8.5349 0.0411 2.0746 1.3745 1.4107 4.6518-2.3163 2.5269-2.8735 4.147-5.6719 3.6003-6.2186zm85.498-14.372c1.361 0.52227 3.8601-0.06354 5.5536-1.3018 2.6485-1.9367 2.7939-3.3104 1.0393-9.8261-2.4061-8.936-5.2647-11.307-8.4237-6.9864-2.9103 3.9799-4.5095 1.4417-2.4782-3.9331 1.9083-5.0493 4.2367-5.1805 8.915-0.50222 3.8086 3.8086 5.1347 7.8925 5.9358 18.28 0.4263 5.5271 1.1027 6.3535 5.0506 6.1711 6.7376-0.31119 18.117-5.5694 19.424-8.9756 0.6879-1.7925-0.4162-4.5248-2.7859-6.8945-4.9419-4.9418-9.9731-2.4733-10.852 5.3246-1.0373 9.1977-3.9622 9.4075-3.9622 0.28414 0-6.6818 0.8541-9.0645 4.0523-11.305 2.2289-1.5611 5.3837-2.8384 7.0108-2.8384 4.1542 0 9.1634 6.0605 10.864 13.144 1.3275 5.5286 1.5424 5.6778 2.7326 1.898 0.7106-2.2564 2.0167-4.1025 2.9026-4.1025s1.6232-3.0769 1.6385-6.8375c0.0372-9.1071 2.044-11.812 8.2237-11.086 3.965 0.466 5.6382 2.0424 7.4126 6.9835 2.6814 7.4667 3.3507 3.6129 0.8731-5.0262-1.8411-6.4192-0.2194-7.5687 4.3008-3.0486 1.5759 1.5759 2.8652 1.9861 2.8652 0.91166s1.5454-1.9536 3.4341-1.9536c4.5783 0 5.6232-4.6961 5.68-25.527 0.0514-18.848-4.9372-59.971-7.6308-62.905-1.4978-1.6314-5.3486-2.2073-19.38-2.8981-2.3219-0.11432-5.3988 1.3115-6.8375 3.1684-2.3081 2.9793-2.8837 3.053-4.8949 0.62722-1.2535-1.512-4.129-2.4801-6.3899-2.1513-2.475 0.35994-4.5477-0.5413-5.2092-2.2651-1.5251-3.9744-7.4866-3.5856-9.7457 0.63558-1.0299 1.9242-4.2573 4.0223-7.1721 4.6625-5.6541 1.2418-8.2418 5.8946-7.6843 13.816 0.2575 3.6584-0.9564 5.2206-5.6669 7.2933-5.4022 2.3772-5.9428 3.3033-5.4721 9.3755 0.4099 5.2873-0.2976 7.1766-3.2864 8.7762-2.0948 1.1211-5.2016 1.7053-6.9039 1.2984-2.3355-0.55832-1.819-1.2643 2.1041-2.8756 3.5914-1.4751 4.8603-3.0199 4.1026-4.9944-0.6034-1.5723-1.0971-4.1229-1.0971-5.6679 0-2.3301-0.5441-2.4196-3.1907-0.52473-1.755 1.2564-0.5353-0.26264 2.7102-3.3757s7.0596-5.2155 8.4764-4.6718 3.1112 0.12118 3.7661-0.93854c0.7034-1.1381 0.1215-1.5164-1.4216-0.92427-1.7219 0.66077-3.2628-0.86319-4.5205-4.4711-1.6451-4.7193-1.5059-5.3192 1.0109-4.3535 2.1469 0.82383 2.6187 0.3375 1.7837-1.8386-0.8152-2.1242-0.3574-2.6601 1.623-1.9002 1.6297 0.62539 3.8723-0.53171 5.4806-2.8279 1.4972-2.1375 3.8579-3.8864 5.2461-3.8864 6.006 0 4.8469-4.5489-4.7806-18.761-0.6414-0.94678-3.4268-0.30796-6.3816 1.4636l-5.2436 3.1437 4.5583-3.8225c2.5071-2.1024 3.9023-3.8407 3.1003-3.863-2.6981-0.07502-11.548 5.1612-14.173 8.3856-2.3217 2.852-2.248 3.0638 0.6834 1.9644 4.4262-1.66 2.1952 1.7535-2.9312 4.4848-3.7255 1.9848-3.8136 1.9046-1.2804-1.1649 2.4977-3.0262 2.4033-3.1957-1.1516-2.0675-2.6014 0.82566-4.2118 0.34406-4.9069-1.4675-0.685-1.785-0.1755-2.3668 1.5071-1.7211 3.1763 1.2188 19.595-9.8615 18.68-12.606-0.3696-1.1088-3.6004-4.3862-7.1796-7.283l-6.5076-5.267-7.7222 3.9396-7.7222 3.9396 6.1411 6.6906 6.1412 6.6906-6.4685-5.9258c-6.8582-6.2828-10.049-7.5658-8.4497-3.3972 0.6718 1.7505-0.0693 2.2567-2.4082 1.6451-4.968-1.2992-20.629 9.9249-19.167 13.736 0.8062 2.1011-0.1157 1.7922-3.145-1.0536l-4.2856-4.0261-6.8635 4.6639c-5.3148 3.6115-6.4105 5.2096-4.8562 7.0825 1.4819 1.7855 1.4036 2.6199-0.2989 3.1874-1.5573 0.51909-0.3351 3.3893 3.7634 8.8381l6.0696 8.0694-7.3289-8.1946c-5.092-5.6935-6.6813-8.6516-5.207-9.6919 1.1756-0.82955 0.0891-0.95022-2.4364-0.27056-2.5071 0.67475-5.789 2.4576-7.2933 3.9618-2.4311 2.4311-2.2301 2.5827 1.809 1.3646 3.7493-1.1307 4.1812-0.92576 2.4692 1.1718-1.6362 2.0047-0.427 4.4061 5.7196 11.358l7.7946 8.8162 9.793-6.8763c9.3129-6.5393 9.5432-6.6049 4.6982-1.339l-5.0948 5.5373 3.7272 9.4561c4.7128 11.956 4.6358 14.685-0.1122 3.9802-3.1337-7.0657-3.9135-7.7442-6.2334-5.4242s-2.198 3.8457 0.9756 12.198c1.995 5.2505 3.6273 11.247 3.6273 13.325 0 4.6949 3.834 3.7153 6.5444-1.6722 1.0924-2.1712 2.5283-3.4056 3.1909-2.743s1.2296-0.77813 1.2601-3.2016c0.1008-8.0052 3.8845 1.244 4.4129 10.787 0.2593 4.6803 0.1259 6.6635-0.2963 4.4071-0.9633-5.1488-1.4057-5.1215-7.4424 0.45986-4.2082 3.8907-5.219 6.8714-6.8663 20.247l-1.9318 15.685 5.0964-6.1162c2.8031-3.3639 6.1029-8.3135 7.3328-10.999s2.8828-4.4832 3.6728-3.9949 1.4885-1.417 1.5521-4.234l0.1156-5.1218 1.8428 4.5583 1.8429 4.5583 3.391-6.9154c1.8652-3.8035 5.7017-9.6255 8.5259-12.938s6.1119-7.5848 7.3064-9.4946c2.0786-3.3228 2.1766-3.3003 2.2792 0.52266 0.059 2.1972 0.9992 4.5462 2.0894 5.2199s1.6401 2.5683 1.2219 4.2101c-1.3808 5.4211 8.2838 19.195 15.135 21.571 12.711 4.4078 37.713 1.2802 48.138-6.0216 1.9916-1.395 4.196-2.5363 4.8988-2.5363 2.0517 0 12.498 9.2795 12.498 11.102 0 2.4506-5.046 2.0216-5.8867-0.50049-0.5074-1.5222-4.4787-0.7687-13.423 2.5466-23.278 8.6285-45.45 8.43-55.73-0.49889l-4.2751-3.713 5.494 2.6487c3.0217 1.4568 9.5857 3.1427 14.587 3.7466l9.0927 1.0979-10.96-3.2794c-13.606-4.0711-15.281-5.1009-17.411-10.702-0.9391-2.47-2.5295-3.9829-3.5342-3.362-2.8627 1.7693-2.158 9.1328 1.8742 19.583 3.1245 8.098 3.5894 12.716 2.9844 29.649-0.3942 11.031-0.3778 15.749 0.0366 10.484 1.2637-16.057 5.591-10.8 6.3787 7.7492 0.2891 6.8057 0.5477 5.7243 1.0198-4.2656 0.489-10.346 1.1941-13.167 3.1072-12.433zm-47.869-52.588c0.0372-3.0085 0.4459-4.0185 0.9081-2.2445s0.432 4.2355-0.0675 5.47-0.8777-0.21702-0.8406-3.2255zm-2.564-29.22c-0.5634-1.9798-1.5798-5.2406-2.2589-7.2463s0.1004-1.3411 1.732 1.4768 2.6481 6.0788 2.2589 7.2463-1.1686 0.50298-1.732-1.4768zm22.265 1.5466c0-0.92505 0.9709-2.6528 2.1576-3.8395 4.3163-4.3162-0.4874-4.5413-5.3426-0.25031l-4.9939 4.4136 3.6336-4.5285c4.4008-5.4847 8.5494-9.0103 10.694-9.0885 0.875-0.0319 0.4648 1.3264-0.9116 3.0184-2.1947 2.6981-2.1049 2.9274 0.7306 1.8644 2.6908-1.0088 2.9309-0.64754 1.4317 2.1539-0.9908 1.8512-1.2149 4.0892-0.498 4.9731s0.5582 0.99897-0.3523 0.25556-2.7567-0.43783-4.1025 0.67909-2.4469 1.2739-2.4469 0.34884zm-30.091-18.811c0.6165-0.99745 2.9212-2.7578 5.1218-3.912 3.9732-2.0839 3.9768-2.0713 0.5275 1.8135-3.4798 3.9192-7.7563 5.5077-5.6493 2.0984zm23.753-8.9891c-1.3086-4.1231-4.5666-5.1752-4.6599-1.5049-0.0333 1.3062-1.1765 0.80148-2.678-1.1822-2.2887-3.0236-3.0309-3.1389-5.8679-0.91167-2.9776 2.3375-3.0326 2.2759-0.6628-0.74065 1.4218-1.8097 4.07-4.0851 5.8848-5.0564 2.7142-1.4526 3.0847-1.2054 2.0877 1.3928-1.0275 2.6776-0.1186 2.5171 5.9668-1.0535l7.1791-4.2123-3.9816 4.2865c-3.095 3.332-3.5653 5.0275-2.1121 7.6141 1.0283 1.8302 1.459 3.7381 0.9573 4.2399s-1.4528-0.79052-2.1134-2.8718zm-37.654-10.622c-2.268-2.8919-2.2035-2.9564 0.6884-0.6884 3.0372 2.382 4.0031 3.8792 2.5024 3.8792-0.3786 0-1.8145-1.4359-3.1908-3.1908zm45.816-2.9676c0-0.37862 1.4358-1.8145 3.1908-3.1908 2.8919-2.268 2.9564-2.2035 0.6885 0.68842-2.382 3.0372-3.8793 4.0031-3.8793 2.5024zm-7.2934-1.8515c0-0.39412 1.2734-1.2052 2.8297-1.8024 1.6227-0.62267 2.3546-0.31699 1.7158 0.71658-1.0707 1.7326-4.5455 2.5626-4.5455 1.0859zm-38.29-4.7534c1.5042-0.97213 3.5555-1.7675 4.5583-1.7675s0.5926 0.79537-0.9116 1.7675-3.5555 1.7675-4.5583 1.7675-0.5927-0.79537 0.9116-1.7675zm21.647-1.3675c-2.268-2.8919-2.2035-2.9564 0.6884-0.68841 3.0372 2.382 4.0031 3.8792 2.5024 3.8792-0.3786 0-1.8145-1.4359-3.1908-3.1908zm-103.92 142.44c2.6148-5.7388 2.2361-6.3307-3.1491-4.9224-2.6463 0.69201-3.7621 2.0274-3.1113 3.7235 0.5582 1.4545 1.0148 3.3979 1.0148 4.3187 0 3.3918 3.1258 1.5328 5.2456-3.1198zm-251.4-0.67604c2.0057-2.0057 3.6346-5.0825 3.6198-6.8375-0.0196-2.3334-0.6444-1.9659-2.3248 1.3675-1.2639 2.5071-4.1357 4.8221-6.3819 5.1445s-3.613 1.348-3.0376 2.2792c1.6247 2.6289 4.1488 2.0219 8.1244-1.9537zm154.98 3.0528c0-0.3266-2.1904-2.583-4.8677-5.0142l-4.8678-4.4203 3.5003 4.9569c2.9727 4.2097 6.2352 6.5526 6.2352 4.4776zm17.656-7.0414c-0.5821-1.4545-1.0141-1.0225-1.1016 1.1016-0.0791 1.9221 0.3517 2.999 0.9577 2.3931s0.6706-2.1785 0.1439-3.4947zm37.181-2.2288c-1.6924-2.0393-1.2778-3.1701 2.0057-5.47 2.2767-1.5946 5.1875-2.8993 6.4687-2.8993 3.299 0 2.8864-4.2302-0.9096-9.3266-1.7814-2.3916-4.4481-6.7386-5.9259-9.66-3.4068-6.7349-12.861-12.873-14.896-9.6716-2.4943 3.9255-1.5733 8.5967 1.7244 8.7455 1.9062 0.08598 2.2733 0.5142 0.9117 1.0636-1.2535 0.50581-2.2792 2.1305-2.2792 3.6103 0 1.4922 0.8932 2.1387 2.0052 1.4514 1.4246-0.88043 1.4728-0.24418 0.1662 2.1971-2.036 3.8044 1.1908 13.532 6.397 19.285 3.4555 3.8183 7.4577 4.4414 4.3313 0.67436zm-5.9482-22.378c1.3162-0.5267 2.8888-0.46194 3.4947 0.14393s-0.471 1.0368-2.3931 0.95766c-2.1241-0.08749-2.5561-0.51955-1.1016-1.1016zm89.705 15.795c1.9699-3.681 1.1085-7.2556-1.7486-7.2556-0.8322 0-1.3991 1.4359-1.2599 3.1908s-0.7723 2.9857-2.0259 2.735c-2.4356-0.48711-3.0729 1.7893-1.0636 3.7986 2.1176 2.1176 4.0654 1.3291 6.098-2.4688zm-44.767-3.3896c-4.0529-1.841-9.4949-5.8738-12.093-8.9619-3.4352-4.0825-5.7782-5.3392-8.5855-4.6051-2.1234 0.5553-3.8607 2.2452-3.8607 3.7552 0 2.2338-0.5099 2.3225-2.735 0.47574-3.4876-2.8944-3.4647-1.2297 0.0776 5.6202 1.5469 2.9915 3.6381 4.929 4.6468 4.3055 1.1803-0.72945 1.0098-2.2134-0.4782-4.1621-1.2719-1.6657-0.2862-1.2399 2.1906 0.94609 4.0492 3.5739 9.4494 4.8772 23.648 5.7072 3.6223 0.21176 3.0453-0.42081-2.8104-3.0807zm30.791 0.71283c6.7074-6.7074 13.492-65.449 8.9383-77.391-1.5692-4.1156-2.9864-2.5496-19.57 21.626-9.8332 14.335-20.986 29.33-24.785 33.323-7.6738 8.067-7.633 10.002 0.3357 15.894 11.516 8.5144 29.718 11.912 35.081 6.5482zm19.727-7.8966c-2.1711-0.32045-3.9475-1.8048-3.9475-3.2984s0.8205-2.2087 1.8233-1.5889c2.2224 1.3735 2.3329-0.93119 0.2056-4.2882-1.2239-1.9313-2.2046-1.5474-4.5304 1.7732-5.1002 7.2814-3.2523 0.25257 3.4132-12.983 3.5099-6.9698 6.4768-14.949 6.5932-17.732 0.1306-3.1261 0.5318-3.8318 1.0496-1.8465 1.2897 4.9439 4.1691 1.8431 3.4728-3.7397-0.3391-2.7189-0.2405-3.8576 0.2192-2.5304 0.5035 1.4537 2.041 1.9151 3.8672 1.1606 8.2384-3.4037 9.4129-3.1863 9.4129 1.7422 0 2.6562-1.1888 7.6749-2.6419 11.153s-2.2946 6.3231-1.8701 6.3231c1.5817 0 6.2899-10.819 7.9784-18.334 1.8699-8.3222-1.079-17.276-8.9743-27.249l-3.6087-4.5583-3.6874 4.5583c-2.5927 3.205-3.3948 6.1639-2.7018 9.9664 0.932 5.114 0.8382 5.2132-1.7246 1.8233-1.4906-1.9716-2.7414-4.8155-2.7795-6.3197-0.1111-4.3946-5.1473 6.5698-5.1672 11.25-0.0243 5.7242-3.5157 28.97-6.4577 42.994-2.366 11.279-2.3489 11.396 1.6637 11.396 2.2299 0 4.5621 1.3232 5.1827 2.9404 0.9638 2.5117 1.5677 2.5781 4.1426 0.45583 2.7516-2.2679 2.6702-2.5353-0.9333-3.0672zm1.878-48.647c0.0371-3.0085 0.4458-4.0185 0.9081-2.2445s0.4318 4.2355-0.0676 5.47-0.8777-0.21704-0.8405-3.2255zm-3.9463-7.2933c0-1.0028 0.7953-3.0541 1.7675-4.5583s1.7674-1.9145 1.7674-0.91168-0.7953 3.0541-1.7674 4.5583-1.7675 1.9145-1.7675 0.91168zm57.009 47.346c2.6888-5.4822 4.5572-9.9676 4.1521-9.9676-1.3839 0-13.81 17.805-13.81 19.788 0 4.628 5.131-0.58901 9.6584-9.8203zm-162.82 2.2306c0-1.0028-1.641-0.33825-3.6466 1.4769s-3.6467 4.1207-3.6467 5.1235 1.641 0.33824 3.6467-1.4769 3.6466-4.1207 3.6466-5.1235zm280.22 3.87c-0.5821-1.4545-1.0141-1.0225-1.1016 1.1016-0.0791 1.9221 0.3517 2.999 0.9576 2.3931s0.6707-2.1785 0.144-3.4947zm-159.88-1.4814c1.5042-0.97213 1.9145-1.7922 0.9117-1.8223s0.2279-1.1354 2.735-2.4562 4.3532-3.3599 4.1025-4.5314 0.3646-2.1301 1.3674-2.1301 1.8234-2.4615 1.8234-5.47c0-6.9758-1.7915-6.829-6.4194 0.52607-2.0264 3.2206-4.7594 5.8556-6.0735 5.8556-2.1816 0-7.3448 7.2185-7.4992 10.484-0.0917 1.9412 5.8023 1.6444 9.0521-0.45583zm1.8233-8.0974c0-1.5634 0.8206-2.8426 1.8234-2.8426s1.8233 0.77207 1.8233 1.7157-0.8205 2.2228-1.8233 2.8426-1.8234-0.15229-1.8234-1.7157zm145.87 6.079c0-1.1101 1.2308-1.5461 2.7351-0.96888 1.6058 0.61624 2.735 0.02457 2.735-1.4332 0-3.448-5.7639-5.334-7.5755-2.4788-2.0572 3.2421-1.9077 6.8993 0.2821 6.8993 1.0028 0 1.8233-0.90828 1.8233-2.0184zm-267.77-12.926c0.8319-10.336-1.4867-10.136-3.7294 0.32196-2.5511 11.895-2.5249 12.296 0.5927 9.0876 1.4268-1.4684 2.8383-5.7028 3.1367-9.4096zm41.101 7.5395c7.3666-2.7773 16.238-11.9 23.828-24.503 3.6236-6.017 11.683-18.454 17.909-27.638 13.159-19.41 15.936-26.592 15.075-39.002-0.5937-8.5649 0.5276-11.239 3.0207-7.2052 4.4698 7.2322 20.523-7.1373 25.441-22.773 3.8271-12.167 3.0839-14.769-4.7071-16.48-5.0604-1.1115-6.5794-0.57635-10.151 3.5764-4.4507 5.1742-5.2106 9.3772-2.4766 13.699 1.0194 1.6113 0.9835 3.9159-0.0921 5.9258-2.3768 4.441-5.171 4.1832-3.9811-0.3673 0.5259-2.011-0.0527-4.8721-1.286-6.358-2.9356-3.5373-1.1437-10.24 4.5447-17.001 3.8619-4.5896 4.1201-5.5838 1.6918-6.5156-1.576-0.60479-4.464-0.2441-6.4178 0.80151s-4.2691 1.4581-5.1452 0.91661-3.936 1.9746-6.7998 5.5914c-13.056 16.489-13.738 16.694-17.502 5.2604l-2.6987-8.1974 5.2467-2.6174 5.2466-2.6174-3.1466 5.3269c-2.1836 3.6963-2.5648 5.9088-1.2458 7.2279 2.4083 2.4082 7.9809 0.37301 7.9809-2.9147 0-1.5423-1.122-2.0522-2.962-1.3461-2.7304 1.0478-2.7299 0.78262 0.0065-3.3936 1.6325-2.4916 2.3501-5.2108 1.5944-6.0427s-0.04-1.0364 1.5903-0.45446c3.6491 1.3024 3.7111-4.2703 0.0732-6.5792-1.5881-1.0079-2.018-3.2234-1.2384-6.3817 0.9625-3.8996 0.7447-4.3958-1.123-2.5586-3.4806 3.4238-5.6278 2.7445-4.3227-1.3675 0.6366-2.0057 0.3694-3.6467-0.5937-3.6467s-2.2196-1.2209-2.7922-2.7131-0.4553-2.6258 0.2607-2.5191c5.0375 0.75085 6.172-0.6001 2.2136-2.636-4.0301-2.0727-4.7196-1.9382-5.9492 1.1603-1.0001 2.5202-0.2337 4.5082 2.7281 7.0771l4.119 3.5723-4.7814-1.2001c-4.323-1.085-4.6992-0.77005-3.924 3.2855 0.4717 2.4671-0.0403 5.0404-1.1375 5.7186-1.263 0.78061-1.9982-0.64618-2.0035-3.8888-0.0098-5.8992-8.0443-15.381-16.952-20.004-14.623-7.5903-51.283-3.9642-74.755 7.394-23.731 11.484-32.114 23.872-26.02 38.457 2.7387 6.5549 3.0859 6.775 6.217 3.9414 3.6281-3.2834 8.323-3.6507 13.969-1.0927 2.6302 1.1917 1.7847 1.3617-3.0339 0.61003-5.4755-0.85415-7.0377-0.37469-8.6608 2.6581-3.4654 6.4752-2.4485 7.5811 5.9174 6.4344 10.422-1.4286 17.554 2.353 26.305 13.948 6.2288 8.2533 7.3377 8.9551 12.748 8.0677 3.5261-0.57838 5.9258-0.20018 5.9258 0.93396 0 1.0483-1.641 1.906-3.6467 1.906-4.015 0-4.9794 2.8959-1.3675 4.1069 1.2535 0.4203-1.853 1.3142-6.9034 1.9864-17.23 2.2932-21.704 11.032-8.799 17.186 3.3715 1.6077 6.1299 3.5917 6.1299 4.4088 0 3.2827-9.5637 1.2043-13.758-2.9898-6.0839-6.084-5.7583-12.483 0.9021-17.728l5.3774-4.2346-9.48-0.50438c-5.2139-0.27741-11.326-0.05666-13.582 0.49057-7.4304 1.8021-4.2809 3.6682 5.4688 3.2404 10.994-0.48244 9.8123 0.52265-2.5723 2.1875-8.8502 1.1898-12.364 4.9054-8.7526 9.2565 1.4447 1.7409 1.1419 2.8122-1.1593 4.1-2.5583 1.4317-2.9004 3.3318-1.9139 10.631 1.6491 12.203 5.3746 16.557 23.189 27.105 8.4533 5.0051 19.086 12.944 23.627 17.642s10.38 9.0741 12.974 9.7252c6.977 1.7511 18.975-2.1281 26.199-8.4709 3.4967-3.0702 6.3577-4.7617 6.3577-3.7588 0 3.8717-13.065 13.146-20.104 14.272-3.9852 0.63726-7.2458 1.7738-7.2458 2.5257 0 2.9725 6.7053 6.3567 14.012 7.072 1.1883 0.11633 4.4703-0.65932 7.2933-1.7236zm-38.381-29.194c-2.6423-2.0784-4.8042-5.3052-4.8042-7.1704 0-1.9323-1.7651-3.9276-4.1025-4.6375-2.2564-0.68532-6.7674-4.0226-10.024-7.4162s-6.7441-6.1702-7.7491-6.1702c-1.0051 0-1.8273-1.5607-1.8273-3.4682 0-3.2783 0.4652-3.3282 8.4948-0.91167 18.007 5.4194 30.036 2.6101 53.148-12.413 7.906-5.139 10.772-7.9269 9.1678-8.9183-1.7855-1.1035-1.6137-1.7185 0.7309-2.6183 4.3364-1.664 15.663 2.453 17.816 6.476 2.6261 4.907 2.2188 7.8145-0.9257 6.6078-1.5059-0.57785-2.743-0.05096-2.7528 1.1724-0.0405 5.0562-9.3494 21.72-16.416 29.386-5.6354 6.1137-10.065 8.9444-17.277 11.041-12.912 3.7538-17.737 3.5566-23.478-0.95948zm24.725-2.6955c4.5646-1.5553 10.249-4.9687 12.632-7.5853 3.8819-4.2621 3.9533-4.6087 0.6864-3.3281-2.0056 0.78614-5.9442 1.6086-8.7524 1.8276-5.3313 0.41585-14.199 6.0117-15.444 9.7454-0.9499 2.8497 0.9091 2.7369 10.877-0.65958zm-18.107-9.2021c2.0566-2.0566-0.9279-6.3403-6.3826-9.161-7.2887-3.7691-10.445-0.90973-6.1803 5.599 2.8269 4.3143 9.8261 6.2988 12.563 3.562zm13.074-2.5116c3.2817-1.2477 4.677-3.1245 4.677-6.2911 0-6.3169-4.9797-8.6879-11.34-5.3991-5.3303 2.7564-6.5669 7.5959-2.8825 11.28 2.6486 2.6485 3.5544 2.6874 9.545 0.4098zm-31.554-6.0089c-3.0356-3.0356-4.7549-0.01969-1.9295 3.3847 1.7088 2.059 2.6971 2.3048 3.1999 0.79617 0.4002-1.2005-0.1714-3.0819-1.2704-4.1809zm55.181-7.8603c1.8306-4.7707 1.2585-9.3067-1.4583-11.562-2.0286-1.6836-4.3168-0.89413-10.94 3.7744-4.6062 3.2468-8.3749 6.5658-8.3749 7.3756 0 2.9363 2.4484 1.5481 11.071-6.2768 4.5083-4.0914 5.2139-4.0168 4.0514 0.42859-1.8457 7.058 3.2001 12.647 5.6512 6.2598zm8.1867-6.6204c1.6741-4.5256 0.6332-10.552-1.8227-10.552-1.8137 0-1.9358 0.40318-2.6233 8.6608-0.5623 6.752 2.2114 7.9319 4.446 1.8913zm-98.247-3.2588c0-1.0028 0.8205-1.8233 1.8234-1.8233s1.8233 0.8205 1.8233 1.8233-0.8205 1.8233-1.8233 1.8233-1.8234-0.8205-1.8234-1.8233zm49.177-11.795c3.873-4.1226 7.3462-4.6677 7.3462-1.1529 0 1.3414-7.9576 5.6551-10.432 5.6551-0.629 0 0.7596-2.026 3.0858-4.5021zm62.176 0.09967c-2.8835-3.4744-2.0206-5.1866 1.5132-3.0026 1.3467 0.83234 2.1135 2.5187 1.7039 3.7475-0.5298 1.5891-1.4585 1.3741-3.2171-0.74485zm-102.24-4.7142c0-1.0028 0.8688-1.8233 1.9309-1.8233s1.4238 0.82049 0.804 1.8233-1.4887 1.8233-1.931 1.8233-0.8039-0.82051-0.8039-1.8233zm52.171-1.388c-0.6161-1.7437-1.6364-4.3102-2.2672-5.7033-1.7041-3.763 2.5843-0.68801 4.7911 3.4355 1.0474 1.9571 1.1408 3.8654 0.2171 4.4363-0.8915 0.55099-2.125-0.42483-2.741-2.1685zm43.554-11.375c0.6198-1.0028 1.4887-1.8233 1.9309-1.8233s0.8041 0.82049 0.8041 1.8233-0.869 1.8233-1.931 1.8233-1.4238-0.82051-0.804-1.8233zm-11.852-1.8233c0-1.0028 0.8205-1.8233 1.8233-1.8233s1.8234 0.82051 1.8234 1.8233-0.8205 1.8233-1.8234 1.8233-1.8233-0.82049-1.8233-1.8233zm-25.007-1.1889c2.0434-3.3063 27.36-12.149 35.268-12.319 4.3772-0.09394 8.8264 0.91513 10.159 2.3041 1.983 2.0667 1.4014 2.2669-3.5529 1.223-4.9362-1.0401-5.7398-0.7681-4.8191 1.6312 0.7344 1.9137 0.0861 2.8795-1.9327 2.8795-1.6707 0-2.5306-0.8205-1.9108-1.8233s-0.0658-1.8233-1.5237-1.8233c-2.3729 0-22.787 5.8916-29.986 8.6543-1.6201 0.62172-2.3443 0.3126-1.702-0.72655zm43.24-0.6344c0-1.0028 0.869-1.8233 1.9309-1.8233s1.4239 0.8205 0.8041 1.8233-1.4887 1.8233-1.9309 1.8233-0.8041-0.8205-0.8041-1.8233zm7.2934-3.6467c0-1.0028 0.8689-1.8233 1.9309-1.8233s1.4238 0.8205 0.8041 1.8233-1.4887 1.8233-1.931 1.8233-0.804-0.8205-0.804-1.8233zm-57.692-4.1025c1.409-2.2564 3.0923-7.6758 3.7409-12.043 1.3346-8.9881 5.2075-17.481 10.722-23.512 7.0194-7.6767 21.595-4.2094 27.925 6.6429 1.8532 3.1772 2.4301 3.5439 1.7401 1.1063-1.0169-3.5928-0.9917-3.5944 1.7074-0.10734 1.5067 1.9466 2.7394 6.2058 2.7394 9.4649s0.8205 6.4327 1.8233 7.0524c2.7976 1.729 2.165 4.5583-1.0192 4.5583-1.5635 0-2.3887-0.73453-1.8338-1.6323 1.1497-1.8603-3.0731-3.8377-8.1957-3.8377-5.9376 0-23.832 9.637-21.287 11.464 1.504 1.0796 0.9816 1.3414-1.5745 0.78905-2.1038-0.45463-5.7961 0.26562-8.205 1.6006s-5.8346 2.4562-7.6127 2.4918c-2.8976 0.05791-2.9672-0.36085-0.6711-4.0379zm11.447-5.418c0.757-1.2249 1.4405-5.6353 1.5188-9.8007 0.1744-9.2776 3.3973-13.499 10.306-13.499 5.5792 0 7.0705 2.5566 2.5117 4.306-3.4808 1.3357-3.5876 6.634-0.1336 6.634 1.4307 0 2.9847-1.4359 3.4534-3.1908 0.7216-2.7023 1.0538-2.5627 2.1696 0.91167 0.7903 2.4605 2.7875 4.1025 4.9902 4.1025 3.2029 0 3.5355-0.84511 2.6003-6.6078-0.5898-3.6343-2.4653-8.147-4.1679-10.028-4.4219-4.8863-13.709-4.4305-18.735 0.91949-4.0179 4.2767-9.3219 18.572-9.3219 25.123 0 3.8152 2.7491 4.4611 4.808 1.1297zm-27.574-0.26332c-3.2481-2.3751-3.1087-2.8608 3.0101-10.484 3.5289-4.3965 9.0188-12.627 12.2-18.289 8.403-14.957 18.418-23.436 27.682-23.436 4.0437 0 9.3132 1.2849 11.71 2.8553 6.0052 3.9348 11.124 19.025 6.4539 19.025-1.0028 0-1.8233-1.5304-1.8233-3.4008 0-6.277-7.0181-13.009-13.561-13.009-9.0436 0-14.341 5.4778-24.586 25.422-8.8699 17.268-13.357 23.808-16.334 23.808-0.7396 0-2.8773-1.1207-4.7506-2.4905zm68.349-32.004c0-0.92081-0.4876-3.1772-1.0835-5.0142-0.9051-2.7894-0.7548-2.8891 0.9116-0.60496 1.2552 1.7206 2.5025 2.0588 3.3628 0.91166 1.9124-2.5498 7.7492-3.2967 7.7492-0.99159 0 1.0468-1.2565 1.9033-2.7922 1.9033s-3.2645 1.2308-3.8418 2.735c-1.1441 2.9815-4.3061 3.7605-4.3061 1.0608zm5.4701-0.14913c0-1.0028 0.8689-1.8233 1.9309-1.8233s1.4238 0.82051 0.8041 1.8233-1.4887 1.8233-1.931 1.8233-0.804-0.8205-0.804-1.8233zm-57.36-16.783c4.7239-6.3529 16.937-14.214 22.084-14.214 4.8006 0 13.396 3.6079 13.396 5.6229 0 0.765-2.4079 0.18967-5.351-1.2785-4.7407-2.365-6.1445-2.3396-12.308 0.22207-3.8261 1.5903-10.205 5.4923-14.175 8.671-6.7328 5.3909-6.978 5.4565-3.6466 0.97635zm56.448 2.1961c-0.6199-1.0028-0.258-1.8233 0.8039-1.8233s1.931 0.8205 1.931 1.8233-0.3618 1.8233-0.804 1.8233-1.3112-0.82049-1.9309-1.8233zm-272.73 142.68 3.8625-6.8375-4.585 5.47c-4.206 5.018-5.7098 8.205-3.8715 8.205 0.40236 0 2.4696-3.0769 4.594-6.8375zm338.96 0.44196c4.6782-5.3803 4.978-6.638 1.2406-5.2038-1.8979 0.72825-2.7351-0.12644-2.7351-2.7922 0-2.113-0.9082-3.8418-2.0184-3.8418s-1.5462 1.2308-0.9688 2.735 0.3425 2.735-0.5216 2.735c-2.2569 0-3.8523 4.9951-2.6205 8.205 1.4642 3.8158 3.0385 3.4364 7.6238-1.8372zm-6.9645 0.17991c0-0.34715 1.2308-1.6526 2.735-2.901 1.5765-1.3083 2.735-1.4856 2.735-0.41833 0 1.0183-1.2307 2.3238-2.735 2.901s-2.735 0.76547-2.735 0.41833zm10.143-19.744c-0.6626-4.9951-2.4931-12.89-4.0675-17.544-3.8827-11.477-16.648-29.43-20.926-29.43-1.8604 0-3.2853-0.61537-3.1666-1.3675 0.4747-3.0058-0.3061-4.262-1.9988-3.2158-0.9896 0.61161 1.9313 6.6876 6.5644 13.655 6.2277 9.3655 9.1113 12.267 11.356 11.428 2.6154-0.97875 2.6814-0.72416 0.5056 1.9507-2.3069 2.836-1.5903 3.9024 2.1821 3.2471 0.8266-0.14359 0.9713 0.59918 0.3215 1.6506s0.0572 5.3794 1.5712 9.6177 3.2569 10.806 3.8731 14.594c1.7287 10.628 5.2399 6.3753 3.7859-4.5858zm19.744-2.4433c0.5475-1.4267 0.3648-2.594-0.406-2.594-1.8138 0-5.7775 3.9637-5.7775 5.7774 0 2.27 5.098-0.3546 6.1835-3.1834zm-14.055-6.5826c-0.582-1.4545-1.0141-1.0225-1.1016 1.1016-0.0791 1.9221 0.3518 2.999 0.9577 2.3931s0.6707-2.1785 0.1439-3.4947zm-41.359-14.499c0-0.75949 2.0315-3.5729 4.5144-6.252l4.5144-4.8712-5.8429-8.1361c-3.2135-4.4749-6.4759-8.5273-7.2494-9.0054-2.4211-1.4963-1.5359 7.7076 1.422 14.787 1.5557 3.7234 1.9661 6.2367 0.9117 5.5851s-1.9169-2.3671-1.9169-3.8121-0.9083-2.6274-2.0184-2.6274c-1.2402 0-1.4785 1.2304-0.6183 3.1908 0.7701 1.755 1.2661 6.8831 1.1022 11.396-0.277 7.6312-0.1062 7.9575 2.4416 4.6657 1.5068-1.9466 2.7396-4.1607 2.7396-4.9202zm11.614-7.4226c-1.3829-2.2376-7.9678 3.8499-7.9678 7.3659 0 2.0841 1.1151 1.7226 4.5022-1.4593 2.4761-2.3262 4.0357-4.9842 3.4656-5.9066zm-296.25-17.287c0.6101-6.8275 0.6513-15.285 0.0914-18.795l-1.0179-6.3817-3.0848 9.9034c-3.0913 9.9241-4.177 27.598-1.8389 29.936 2.6393 2.6393 4.7845-2.7376 5.8502-14.663zm328.4 11.152c0-1.4577-1.129-2.0494-2.7349-1.4332-1.5043 0.57724-2.735 2.1667-2.735 3.5322 0 1.4578 1.129 2.0494 2.735 1.4332 1.5042-0.57725 2.7349-2.1667 2.7349-3.5322zm61.993-9.8905c0-1.0028-0.3619-1.8233-0.8041-1.8233s-1.3112 0.82049-1.9309 1.8233-0.258 1.8233 0.804 1.8233 1.931-0.82051 1.931-1.8233zm-102.11-7.2933c0-1.0028-1.2792-1.8233-2.8426-1.8233s-2.3355 0.8205-1.7157 1.8233 1.899 1.8233 2.8426 1.8233 1.7157-0.8205 1.7157-1.8233zm-121.12-10.528c-3.1502-3.0089-3.1992-2.96-1.1112 1.1112 1.2012 2.3423 2.6841 3.7586 3.2953 3.1474s-0.3717-2.5276-2.1841-4.2586zm137.25 0.22483c0.3512-0.21706 0.0647-1.3232-0.6368-2.4581-0.8935-1.4457-2.2999-1.1362-4.6979 1.034-4.1369 3.7438-2.6518 7.4177 1.6678 4.1262 1.6657-1.2692 3.3159-2.4852 3.6669-2.7022zm-157.73-1.0135c1.2066-4.6141 0.4593-5.9802-2.3288-4.2571-2.3399 1.4462-2.6156 8.28-0.3339 8.28 0.8859 0 2.0841-1.8103 2.6627-4.0229zm303.26-2.1196c2.3398 0.58727 6.3382 0.54473 8.8853-0.09454 4.2167-1.0583 4.5259-1.7694 3.4567-7.9468-1.6857-9.7381-8.5878-24.247-14.141-29.726-6.269-6.1851-17.826-9.5539-27.408-7.9892-7.521 1.2282-24.885 7.8145-24.885 9.4391 0 0.46792 4.161 5.495 9.2468 11.171s10.596 12.577 12.245 15.335 3.4551 5.0142 4.0136 5.0142 2.5386-2.8279 4.3999-6.2843c3.9443-7.3242 11.5-14.911 13.179-13.233 0.6387 0.63882-1.5083 4.2022-4.7713 7.9185-6.0416 6.881-11.244 16.962-9.8861 19.159 0.4128 0.66791 2.3907 0.78547 4.3954 0.26124s3.6448-0.12541 3.6448 0.88628 3.0086 0.30559 6.6857-1.5691c3.9267-2.0019 8.4413-2.9679 10.94-2.3408zm-289.3 2.4958c0-1.0028-0.8689-1.8233-1.9309-1.8233s-1.4238 0.8205-0.8041 1.8233 1.4887 1.8233 1.9309 1.8233 0.8041-0.82049 0.8041-1.8233zm167.74-15.252c6.5161-4.4857 12.253-7.7506 12.748-7.2552s-0.3232 1.6035-1.819 2.4625-4.3608 2.8535-6.3665 4.4322c-7.4789 5.887 5.3738-0.18369 17.794-8.4046 20.065-13.281 19.339-12.7 14.129-11.311-3.9349 1.0488-4.2326 0.83585-2.2208-1.5882 1.9758-2.3808 1.4862-3.0911-3.2745-4.7507-6.7646-2.3582-15.315 0.64489-13.714 4.8167 0.7208 1.8783 0.0996 2.283-2.2087 1.4392-1.7663-0.64571-0.75 0.83039 2.2585 3.2802 3.0941 2.5194 4.7676 5.1192 3.8529 5.9852-0.8895 0.84212-1.9891 0.48822-2.4439-0.7866s-3.0179-3.4506-5.6958-4.8354c-4.415-2.283-5.5946-2.0895-12.645 2.0744-5.7136 3.3742-7.2844 5.185-5.9219 6.8265 2.657 3.2016 0.4283 4.6157-5.4286 3.4443-4.3231-0.86461-5.7448-0.00522-9.7555 5.8971-3.4629 5.0963-4.1834 7.5254-2.7457 9.2577 2.3391 2.8185 5.6814 1.2535 23.458-10.984zm21.884-15.745c0-1.0028 0.7534-1.8233 1.6742-1.8233s3.1772-0.56387 5.0142-1.253c2.9402-1.103 3.0404-0.88477 0.8375 1.8233-2.7359 3.3635-7.5259 4.161-7.5259 1.253zm-199.81 22.591c5.3545 0.99688 5.4507 0.91285 1.9824-1.7324-5.4255-4.138-12.626-2.694-13.386 2.6845-0.5924 4.1932-0.4722 4.2491 2.5776 1.1993 2.2663-2.2663 4.8398-2.8936 8.8264-2.1514zm263.78 2.9354c4.195 0 0.7386-6.0366-10.255-17.91-13.772-14.875-22.498-20.871-29.18-20.049-4.4758 0.55067-4.2422 0.93591 4.5205 7.4542 5.0822 3.7804 13.536 12.614 18.787 19.631 5.8684 7.8418 10.492 12.394 12 11.816 1.3493-0.51778 3.2066-0.9414 4.1274-0.9414zm-288.86-58.698c-0.4739-1.8125-0.0696-3.2955 0.8985-3.2955s1.2882-0.7638 0.7113-1.6973-0.3001-2.1602 0.6152-2.7259 3.4544-4.5198 5.6424-8.7868 8.6318-12.188 14.32-17.602c5.9119-5.6272 8.3002-8.7512 5.5759-7.2933-6.5154 3.4865-22.942 22.626-28.009 32.635-2.2847 4.5128-4.7048 11.077-5.378 14.587l-1.2239 6.3817 3.8552-4.4537c2.1202-2.4495 3.4672-5.9366 2.9931-7.7492zm117.33-16.95c-1.2391-1.4932-2.9806-2.2653-3.8699-1.7157s-1.6167-0.69023-1.6167-2.7551-0.7179-3.7543-1.5954-3.7543-1.5954 2.1201-1.5954 4.7114c0 3.709 0.7274 4.5212 3.4187 3.8174 1.8804-0.49171 3.4188-0.15034 3.4188 0.75861s0.921 1.6526 2.0466 1.6526c1.4207 0 1.3575-0.83024-0.2067-2.7149zm4.8757-1.2736c-0.5822-1.4545-1.0142-1.0225-1.1017 1.1016-0.0791 1.9221 0.3518 2.999 0.9577 2.3931s0.6706-2.1785 0.144-3.4947zm-17.656-8.0582c0-0.39413-1.2308-0.71659-2.7351-0.71659s-2.7349 0.79475-2.7349 1.7661 1.2308 1.2938 2.7349 0.71659 2.7351-1.372 2.7351-1.7661zm-13.808-2.7306c-5.5049-2.1565-6.8787-1.8541-4.515 0.99397 1.199 1.4446 3.4958 2.1217 5.1041 1.5045 2.5214-0.96756 2.4402-1.3117-0.5891-2.4985zm31.13 2.014c-0.6197-1.0028-1.9474-1.8233-2.9502-1.8233s-1.3162 0.82049-0.6964 1.8233 1.9473 1.8233 2.9501 1.8233 1.3163-0.82049 0.6965-1.8233zm-41.025-1.8233c0-1.0028-0.8689-1.8233-1.9309-1.8233s-1.4238 0.8205-0.8041 1.8233 1.4888 1.8233 1.931 1.8233 0.804-0.82051 0.804-1.8233zm28.262-7.2933c0.6198-1.0028 0.258-1.8233-0.804-1.8233s-1.931 0.8205-1.931 1.8233 0.3618 1.8233 0.8041 1.8233 1.3111-0.82049 1.9309-1.8233zm-69.179-10.129c3.3372-2.6737 3.2791-2.7116-1.019-0.66468-5.5813 2.6581-6.6156 3.5003-4.299 3.5003 0.9783 0 3.3714-1.276 5.318-2.8356zm26.331-10.804c4.5127-1.3446 6.564-2.4986 4.5583-2.5644-5.8995-0.19339-17.6 2.9758-19.824 5.3698-2.1913 2.3585-1.8616 2.2979 15.266-2.8054zm-167.68 572.49c-0.0228-1.0028 1.5887-4.2848 3.5811-7.2933 4.3115-6.51 4.7032-10.319 0.9117-8.8644-1.5042 0.57725-2.735 0.20158-2.735-0.83478 0-3.2638 19.98-12.075 22.245-9.8103 1.4324 1.4323 0.6417 2.3233-2.8361 3.1961-6.1541 1.5446-6.1341 5.6277 0.0591 12.092 6.5938 6.8824 4.3448 8.3471-3.1427 2.0468-4.4028-3.7047-6.2336-4.3967-6.8377-2.5846-1.1693 3.5078-11.195 14.253-11.245 12.052zm-156.87-352.48c0-1.4294 12.339-13.099 13.851-13.099 2.8139 0-0.31335 5.3955-5.5484 9.5725-6.5933 5.2608-8.3024 5.9867-8.3024 3.5263zm-16.148-4.5778c-3.2967-3.9723-7.7506-15.847-6.6261-17.666 0.575-0.93037-0.09627-3.5609-1.4917-5.8456-3.1936-5.2288-3.8824-17.406-1.1694-20.674 1.2037-1.4504 1.55-4.7709 0.83638-8.0198-0.97405-4.4348-0.61366-5.5447 1.8006-5.5447 3.4442 0 23.682-15.054 26.138-19.444 1.0055-1.7968 2.0715-2.1826 2.7953-1.0115 2.1078 3.4104-0.84897 7.4298-9.5933 13.041-9.8606 6.3275-16.959 13.369-18.083 17.938-1.6426 6.6775-2.4335 22.297-1.129 22.297 3.0757 0 20.847-14.908 20.847-17.488 0-1.531 0.82049-2.2765 1.8233-1.6567 3.6914 2.2814 1.5889 5.8222-8.168 13.756-11.611 9.4416-13.204 13.299-9.323 22.587l2.831 6.7754 11.005-8.4682c6.0528-4.6575 10.534-9.2309 9.9574-10.163s-0.17864-1.695 0.88337-1.695c5.3351 0 0.87243 7.5302-9.0115 15.206-6.0184 4.6737-11.251 8.4976-11.628 8.4976s-1.5894-1.0886-2.6936-2.419zm32.58-11.589c0.01224-0.81972 7.4367-5.8752 16.499-11.234s18.078-11.463 20.034-13.563l3.5579-3.8189v3.8108c0 2.8352-4.1944 6.3907-16.383 13.887-16.818 10.344-23.747 13.535-23.708 10.918zm-25.5-5.5929c0.05613-1.5562 12.294-15.042 13.65-15.042 2.7638 0 0.08373 5.5333-5.1255 10.582-5.9188 5.7367-8.6218 7.151-8.5247 4.4602zm20.919-5.9258c-0.61979-1.0028-0.28619-1.8233 0.74132-1.8233 1.5944 0 14.734-8.0542 39.815-24.406 3.2524-2.1204 5.9315-5.086 5.9537-6.5903 0.03408-2.3086 0.294-2.3344 1.6671-0.16534 2.4443 3.8612 0.93635 6.0109-8.5422 12.178-37.424 24.348-37.442 24.357-39.635 20.808zm-4.4652-12.095c0.0512-0.86903 10.805-8.144 23.896-16.167s25.859-16.478 28.371-18.79 4.9884-3.7832 5.5022-3.2695c2.6085 2.6085-3.2898 7.7799-25.407 22.276-22.619 14.825-32.586 19.737-32.363 15.951zm57.263-2.6186c-0.65914-1.0665-0.91115-2.114-0.56003-2.3277 1.8358-1.1174 14.559-6.6621 15.287-6.6621 2.885 0-0.20197 3.3195-6.3534 6.832-4.6871 2.6763-7.5906 3.4246-8.3735 2.1578zm-77.413-8.4941c0-0.73017 3.282-4.3276 7.2933-7.9944 5.8643-5.3605 7.2933-6.0117 7.2933-3.3235 0 1.8388-2.7441 5.4362-6.0979 7.9944-6.2615 4.7759-8.4887 5.6479-8.4887 3.3235zm23.703-4.2662c2.5071-2.0292 14.404-10.131 26.438-18.005s23.726-16.171 25.982-18.439l4.1025-4.1237v3.8876c0 2.8651-3.6518 6.1782-13.884 12.596-7.6362 4.7898-19.866 13.016-27.178 18.281s-14.808 9.5542-16.657 9.5319c-2.884-0.03477-2.7139-0.5654 1.196-3.73zm-1.8233-14.463c0-1.0028 0.85755-1.8233 1.9057-1.8233 2.4182 0 25.703-15.608 44.259-29.667 7.8413-5.941 14.63-10.429 15.085-9.9732 1.9722 1.9722-1.9671 6.3944-11.656 13.085-5.7159 3.947-17.913 12.357-27.106 18.689-15.851 10.919-22.488 13.778-22.488 9.6894zm61.067-9.1397c-1.2477-2.0188 13.655-9.1791 16.124-7.7468 0.83748 0.48595-1.624 2.8176-5.47 5.1814-7.9348 4.8769-9.0578 5.1474-10.654 2.5654zm-77.477-3.2954c0-1.375 16.153-16.738 17.598-16.738 0.34919 0 0.63488 1.1758 0.63488 2.6129s-3.5716 5.5396-7.937 9.1167c-8.0615 6.6058-10.296 7.6929-10.296 5.0086zm23.744-5.3424c0.02254-0.75213 11.221-8.752 24.885-17.778s25.895-17.436 27.179-18.689c3.0216-2.95 4.4183-2.8867 4.4183 0.20019 0 2.5954-50.617 37.634-54.367 37.634-1.1862 0-2.1383-0.61537-2.1158-1.3675zm1.7824-15.695c0-0.35888 5.1281-3.8122 11.396-7.674s18.196-11.773 26.508-17.581c15.955-11.148 16.797-11.589 16.797-8.7999 0 2.6221-47.478 34.707-51.358 34.707-1.8379 0-3.3416-0.29363-3.3416-0.65251zm58.347-11.015c0-1.8679 14.576-8.0584 15.49-6.5788 1.1581 1.8739-8.2584 7.3064-12.665 7.3064-1.554 0-2.8255-0.32741-2.8255-0.72757zm-69.287-4.7238c0-0.99259 4.5127-4.801 10.028-8.4632s10.028-7.3628 10.028-8.2236 0.82049-1.5652 1.8233-1.5652c3.3434 0 1.8776 5.2616-2.2792 8.1814-7.5955 5.3351-17.933 11.875-18.77 11.875-0.45688 0-0.83069-0.81213-0.83069-1.8047zm7.2933-14.248c0-2.2855 11.066-12.204 19.294-17.293 13.857-8.5712 36.718-19.531 40.739-19.531 5.4685 0 3.1378 3.0983-3.4131 4.5371-6.2843 1.3803-36.017 18.909-46.899 27.649-7.8104 6.273-9.7215 7.1849-9.7215 4.6385zm21.88-7.2877c0-0.80301 3.7189-3.2668 8.2642-5.475s8.7356-5.2435 9.3117-6.745c1.3498-3.5176 4.3041-3.5394 4.3041-0.03184 0 1.484-4.3076 5.1685-9.5725 8.1879-10 5.7349-12.308 6.4969-12.308 4.064zm42.967-0.17058c-0.54972-0.88946 1.0158-2.9377 3.479-4.5516 5.0767-3.3264 8.2535-3.7721 8.2535-1.1579 0 2.53-10.53 7.6546-11.733 5.7096zm-17.344-14.324c0.13538-1.9224 20.133-11.831 21.373-10.591 0.55996 0.55996 0.67625 1.2574 0.2584 1.5498-12.681 8.8744-21.891 12.724-21.632 9.0408z"/>
 </g>
</svg>
